<?xml version="1.0" encoding="utf-8"?>
<!-- Generator: Adobe Illustrator 22.1.0, SVG Export Plug-In . SVG Version: 6.00 Build 0)  -->
<svg version="1.1" id="Layer_1" xmlns="http://www.w3.org/2000/svg" xmlns:xlink="http://www.w3.org/1999/xlink" x="0px" y="0px"
	 viewBox="0 0 45 45" style="enable-background:new 0 0 45 45;" xml:space="preserve">
<style type="text/css">
	.st0{fill:url(#SVGID_1_);}
	.st1{fill:url(#SVGID_2_);}
	.st2{fill:url(#SVGID_3_);}
	.st3{fill:url(#SVGID_4_);}
	.st4{fill:url(#SVGID_5_);}
	.st5{fill:url(#SVGID_6_);}
	.st6{fill:url(#SVGID_7_);}
</style>
<linearGradient id="SVGID_1_" gradientUnits="userSpaceOnUse" x1="-37.55" y1="27.075" x2="-37.55" y2="27.2375" gradientTransform="matrix(1 0 0 1 0 1)">
	<stop  offset="0" style="stop-color:#3A9DF8"/>
	<stop  offset="1" style="stop-color:#115FA7"/>
</linearGradient>
<path class="st0" d="M-37.5,28.2c-0.1-0.1,0,0-0.1-0.1c-0.1-0.1,0,0,0,0L-37.5,28.2C-37.5,28.2-37.4,28.2-37.5,28.2z"/>
<g>
	
		<linearGradient id="SVGID_2_" gradientUnits="userSpaceOnUse" x1="10.6997" y1="18.8345" x2="10.6997" y2="11.2358" gradientTransform="matrix(1 0 0 -1 0 45)">
		<stop  offset="0" style="stop-color:#3A9DF8"/>
		<stop  offset="1" style="stop-color:#115FA7"/>
	</linearGradient>
	<path class="st1" d="M11.5,29.3C11,29,10.4,29,10,29.2c-0.2,0-0.3,0.1-0.6,0.1l-0.1-1.9l2.7-0.4l-0.1-0.8l-3.3,0.7l0.2,3.4
		c0.3-0.1,0.7-0.2,1-0.3c1.3-0.2,2.1,0.2,2.3,1.2c0.1,0.9-0.4,1.7-1.3,1.8c-0.6,0.1-1.1,0-1.5-0.1L9,33.6c0.6,0.2,1.2,0.2,1.8,0.1
		c1.3-0.1,2.3-1.3,2.1-2.7v-0.1C12.7,30.1,12.3,29.5,11.5,29.3z"/>
	
		<linearGradient id="SVGID_3_" gradientUnits="userSpaceOnUse" x1="13.2852" y1="25.0324" x2="13.2852" y2="0.3514" gradientTransform="matrix(1 0 0 -1 0 45)">
		<stop  offset="0" style="stop-color:#3A9DF8"/>
		<stop  offset="1" style="stop-color:#115FA7"/>
	</linearGradient>
	<path class="st2" d="M13.3,20C6.4,20,1,25.5,1,32.3s5.4,12.4,12.3,12.4s12.3-5.5,12.3-12.3S20,20,13.3,20z M10.5,35.9
		c-3.2,0-5.9-2.7-5.9-5.9s2.7-5.9,5.9-5.9s5.9,2.7,5.9,5.9C16.3,33.4,13.7,35.9,10.5,35.9z"/>
	
		<linearGradient id="SVGID_4_" gradientUnits="userSpaceOnUse" x1="35.0486" y1="21.8643" x2="35.0486" y2="14.8983" gradientTransform="matrix(1 0 0 -1 0 45)">
		<stop  offset="0" style="stop-color:#3A9DF8"/>
		<stop  offset="1" style="stop-color:#115FA7"/>
	</linearGradient>
	<path class="st3" d="M36.9,23.5c-0.6-0.3-1.2-0.4-1.9-0.3l-0.1,0.7c0.4-0.1,1,0,1.4,0.2c0.6,0.2,0.9,0.8,0.7,1.3
		c0,0.1,0,0.1-0.1,0.2c-0.4,0.7-1.2,0.8-1.9,0.3l-0.3-0.2l-0.3,0.7l0.4,0.2c0.8,0.4,1.3,1.1,1,2c-0.3,0.7-1.1,0.9-1.8,0.6
		c-0.1,0-0.1-0.1-0.2-0.1c-0.4-0.2-0.9-0.7-1.1-1.1l-0.6,0.6c0.3,0.6,0.8,0.9,1.3,1.2c1.4,0.8,2.7,0.3,3.1-0.7
		c0.4-0.8,0.1-1.8-0.6-2.2c0.8,0.1,1.4-0.2,1.9-0.9C38.2,25.1,38,24.2,36.9,23.5z"/>
	
		<linearGradient id="SVGID_5_" gradientUnits="userSpaceOnUse" x1="32.0736" y1="32.243" x2="32.0736" y2="7.5988" gradientTransform="matrix(1 0 0 -1 0 45)">
		<stop  offset="0" style="stop-color:#3A9DF8"/>
		<stop  offset="1" style="stop-color:#115FA7"/>
	</linearGradient>
	<path class="st4" d="M31.7,12.8c-5.1,0-9.7,3.2-11.5,8c5.3,3.1,7.7,9.4,6.1,15.4c6.1,3,13.5,0.6,16.5-5.5c3-6.1,0.6-13.5-5.5-16.5
		C35.5,13.1,33.6,12.7,31.7,12.8z M35,32.5c-3.2,0-5.9-2.7-5.9-5.9s2.7-5.9,5.9-5.9c3.2,0,5.8,2.7,5.9,5.8
		C40.8,29.8,38.3,32.5,35,32.5z"/>
	
		<linearGradient id="SVGID_6_" gradientUnits="userSpaceOnUse" x1="13.7279" y1="38.203" x2="13.7279" y2="30.7876" gradientTransform="matrix(1 0 0 -1 0 45)">
		<stop  offset="0" style="stop-color:#3A9DF8"/>
		<stop  offset="1" style="stop-color:#115FA7"/>
	</linearGradient>
	<path class="st5" d="M11.4,7.7h3.5l-3.1,6.5h1l3.2-6.8V6.8h-4.6V7.7z"/>
	
		<linearGradient id="SVGID_7_" gradientUnits="userSpaceOnUse" x1="16.371" y1="44.6486" x2="16.371" y2="24.479" gradientTransform="matrix(1 0 0 -1 0 45)">
		<stop  offset="0" style="stop-color:#3A9DF8"/>
		<stop  offset="1" style="stop-color:#115FA7"/>
	</linearGradient>
	<path class="st6" d="M8,19.9c3.3-1.4,7.2-1.4,10.5,0l0.7,0.3c1-2.4,2.7-4.6,4.8-6.2c1.4-1,3.1-1.8,4.8-2.1
		c-0.4-6.8-6.3-12-13.1-11.5C8.9,0.8,3.7,6.7,4.1,13.5c0.2,2.5,1.1,5,2.8,7C7.2,20.2,7.6,20.1,8,19.9z M13.7,4.7
		c3.2,0,5.9,2.7,5.9,5.9c0,3.2-2.7,5.9-5.9,5.9s-5.9-2.7-5.9-5.9C7.9,7.4,10.4,4.7,13.7,4.7z"/>
</g>
</svg>
