<?xml version="1.0" encoding="utf-8"?>
<!-- Generator: Adobe Illustrator 22.1.0, SVG Export Plug-In . SVG Version: 6.00 Build 0)  -->
<svg version="1.1" id="Layer_1" xmlns="http://www.w3.org/2000/svg" xmlns:xlink="http://www.w3.org/1999/xlink" x="0px" y="0px"
	 viewBox="0 0 45 45" style="enable-background:new 0 0 45 45;" xml:space="preserve">
<style type="text/css">
	.st0{fill:url(#SVGID_1_);}
	.st1{fill:url(#SVGID_2_);}
	.st2{fill:url(#SVGID_3_);}
	.st3{fill:url(#SVGID_4_);}
	.st4{fill:url(#SVGID_5_);}
	.st5{fill:url(#SVGID_6_);}
	.st6{fill:url(#SVGID_7_);}
	.st7{fill:url(#SVGID_8_);}
	.st8{fill:url(#SVGID_9_);}
	.st9{fill:url(#SVGID_10_);}
	.st10{fill:url(#SVGID_11_);}
	.st11{fill:url(#SVGID_12_);}
	.st12{fill:url(#SVGID_13_);}
	.st13{fill:url(#SVGID_14_);}
	.st14{fill:url(#SVGID_15_);}
	.st15{fill:url(#SVGID_16_);}
	.st16{fill:url(#SVGID_17_);}
	.st17{fill:url(#SVGID_18_);}
	.st18{fill:url(#SVGID_19_);}
	.st19{fill:url(#SVGID_20_);}
</style>
<g>
	<g>
		
			<linearGradient id="SVGID_1_" gradientUnits="userSpaceOnUse" x1="27.5548" y1="44.3333" x2="27.5548" y2="0.1607" gradientTransform="matrix(1 0 0 -1 0 45)">
			<stop  offset="0" style="stop-color:#3A9DF8"/>
			<stop  offset="1" style="stop-color:#115FA7"/>
		</linearGradient>
		<path class="st0" d="M40.6,0h-26c-0.8,0.3-1.4,1-1.5,1.9v19.4l0.1,0.3c0.3,0,0.8-0.1,1.1-0.1h0.3c4.2,0.1,7.9,2.4,10,5.6
			c1.9-0.2,2.7-3.2,2.7-4.8C27,23,26.6,23.4,26.1,24c-0.4,0.3-1,0.6-1.7,0.6s-1.2-0.2-1.8-0.7c-0.5-0.5-0.8-1.1-0.7-1.8
			c0-0.6,0.1-1,0.5-1.5c0.6-0.8,1.2-1.6,2-2.1c0.8-0.7,1.6-1.5,2.1-2.4c0.5-0.7,0.7-1.3,0.9-2.1c0.2,0.8,0.5,1.5,0.9,2.1
			c0.7,0.9,1.4,1.7,2.1,2.4c0.8,0.7,1.5,1.3,2,2.1c0.2,0.5,0.5,1,0.5,1.6c0,0.7-0.2,1.4-0.7,1.8c-0.4,0.5-1.1,0.8-1.8,0.7
			c-0.6,0-1.1-0.2-1.7-0.6c-0.6-0.5-0.9-1-1.2-1.7c0,1.7,0.9,4.7,2.8,4.8l0.1,0.4H25c1,1.8,1.7,3.9,1.7,6.2c0,2.9-1,5.5-2.7,7.7
			h15.6c1.4,0,2.4-1,2.4-2.4V2.3C42.1,1.2,41.4,0.3,40.6,0z M20.2,6.2c-0.1,0.2-0.3,0.2-0.7,0.2c-0.2,0-0.5,0-0.6-0.2
			c-0.2-0.1-0.3-0.3-0.5-0.6c0,0.7,0.3,1.7,1,1.8v0.1h-2.3V7.4c0.8,0,1-1.1,1-1.8c-0.1,0.2-0.2,0.5-0.5,0.6
			c-0.1,0.1-0.3,0.2-0.6,0.2c-0.2,0-0.5-0.1-0.7-0.2c-0.2-0.2-0.2-0.5-0.2-0.7s0.1-0.3,0.1-0.6c0.2-0.3,0.5-0.6,0.8-0.8
			c0.3-0.2,0.6-0.6,0.8-0.9C17.9,3,18,2.6,18.1,2.4c0.1,0.2,0.2,0.6,0.3,0.8c0.2,0.3,0.5,0.7,0.8,0.9c0.2,0.2,0.6,0.5,0.7,0.8
			C20,5.1,20,5.2,20,5.5C20.5,5.7,20.4,6,20.2,6.2z M39.4,36c-0.2,0.1-0.2,0.2-0.3,0.3c-0.2,0.3-0.5,0.6-0.7,0.8
			c-0.3,0.2-0.6,0.6-0.8,0.9c-0.1,0.1-0.1,0.2-0.1,0.2c-0.2,0.1-0.2,0.3-0.2,0.5c0-0.1-0.1-0.2-0.1-0.3S37,38.1,36.9,38
			c-0.2-0.3-0.4-0.6-0.7-0.8c0,0-0.1,0-0.1-0.1c-0.2-0.2-0.6-0.6-0.7-0.8c-0.1-0.2-0.1-0.3-0.1-0.6c0-0.2,0.1-0.5,0.2-0.7
			c0.1-0.1,0.5-0.2,0.7-0.2s0.5,0.1,0.6,0.2c0.2,0.1,0.3,0.3,0.5,0.6c0-0.7-0.3-1.7-1-1.8v-0.1h2.3v0.1c-0.8,0-1,1.1-1,1.8
			c0.1-0.2,0.2-0.5,0.5-0.6c0.2-0.1,0.3-0.2,0.6-0.2c0.2,0,0.5,0.1,0.7,0.2c0.1,0.2,0.2,0.5,0.2,0.7C39.4,35.9,39.4,35.9,39.4,36z"
			/>
	</g>
	<g>
		
			<linearGradient id="SVGID_2_" gradientUnits="userSpaceOnUse" x1="14.5" y1="44.3333" x2="14.5" y2="0.1607" gradientTransform="matrix(1 0 0 -1 0 45)">
			<stop  offset="0" style="stop-color:#3A9DF8"/>
			<stop  offset="1" style="stop-color:#115FA7"/>
		</linearGradient>
		<path class="st1" d="M17.2,34.3c-0.2-0.3-0.6-0.6-0.9-0.7c-0.3-0.1-0.8-0.3-1.4-0.5L14.7,33v-2.1c0.2,0,0.5,0.1,0.7,0.3
			c0.1,0.2,0.2,0.5,0.3,0.7h1.8c-0.1-0.7-0.3-1.1-0.8-1.6s-1.1-0.7-1.9-0.7v-1h-0.5v1c-0.4,0-0.8,0.1-1.1,0.1
			c-0.1,0-0.2,0.1-0.3,0.1c-0.4,0.2-0.8,0.5-1,0.8s-0.3,0.7-0.3,1.2c0,0.6,0.1,0.9,0.3,1.2s0.6,0.6,0.9,0.7c0.1,0.1,0.3,0.1,0.4,0.2
			c0.2,0.1,0.6,0.2,0.9,0.3l0.2,0.1v2.3c-0.3-0.1-0.6-0.2-0.8-0.5c-0.2-0.2-0.3-0.4-0.3-0.8h-1.7c0.1,0.7,0.3,1.2,0.8,1.7
			c0.2,0.2,0.6,0.3,0.9,0.6c0.3,0.1,0.7,0.2,1.1,0.2v0.9h0.3v-0.9c0.7,0,1.1-0.1,1.6-0.3c0.5-0.2,0.8-0.5,1-0.9
			c0.2-0.3,0.3-0.7,0.3-1.1C17.5,35,17.4,34.5,17.2,34.3z M14.4,32.8h-0.1c-0.3-0.1-0.6-0.3-0.8-0.5s-0.2-0.4-0.2-0.7
			c0-0.3,0.1-0.6,0.3-0.7s0.5-0.2,0.8-0.2V32.8z M15.5,36.3c-0.2,0.2-0.4,0.3-0.8,0.3v-2.1c0.3,0.1,0.7,0.2,0.8,0.5
			c0.2,0.2,0.3,0.5,0.3,0.7C15.9,35.9,15.7,36.1,15.5,36.3z"/>
	</g>
	<g>
		
			<linearGradient id="SVGID_3_" gradientUnits="userSpaceOnUse" x1="14.5" y1="44.3333" x2="14.5" y2="0.1607" gradientTransform="matrix(1 0 0 -1 0 45)">
			<stop  offset="0" style="stop-color:#3A9DF8"/>
			<stop  offset="1" style="stop-color:#115FA7"/>
		</linearGradient>
		<path class="st2" d="M17.2,34.3c-0.2-0.3-0.6-0.6-0.9-0.7c-0.3-0.1-0.8-0.3-1.4-0.5L14.7,33v-2.1c0.2,0,0.5,0.1,0.7,0.3
			c0.1,0.2,0.2,0.5,0.3,0.7h1.8c-0.1-0.7-0.3-1.1-0.8-1.6s-1.1-0.7-1.9-0.7v-1h-0.5v1c-0.4,0-0.8,0.1-1.1,0.1
			c-0.1,0-0.2,0.1-0.3,0.1c-0.4,0.2-0.8,0.5-1,0.8s-0.3,0.7-0.3,1.2c0,0.6,0.1,0.9,0.3,1.2s0.6,0.6,0.9,0.7c0.1,0.1,0.3,0.1,0.4,0.2
			c0.2,0.1,0.6,0.2,0.9,0.3l0.2,0.1v2.3c-0.3-0.1-0.6-0.2-0.8-0.5c-0.2-0.2-0.3-0.4-0.3-0.8h-1.7c0.1,0.7,0.3,1.2,0.8,1.7
			c0.2,0.2,0.6,0.3,0.9,0.6c0.3,0.1,0.7,0.2,1.1,0.2v0.9h0.3v-0.9c0.7,0,1.1-0.1,1.6-0.3c0.5-0.2,0.8-0.5,1-0.9
			c0.2-0.3,0.3-0.7,0.3-1.1C17.5,35,17.4,34.5,17.2,34.3z M14.4,32.8h-0.1c-0.3-0.1-0.6-0.3-0.8-0.5s-0.2-0.4-0.2-0.7
			c0-0.3,0.1-0.6,0.3-0.7s0.5-0.2,0.8-0.2V32.8z M15.5,36.3c-0.2,0.2-0.4,0.3-0.8,0.3v-2.1c0.3,0.1,0.7,0.2,0.8,0.5
			c0.2,0.2,0.3,0.5,0.3,0.7C15.9,35.9,15.7,36.1,15.5,36.3z"/>
	</g>
	<g>
		
			<linearGradient id="SVGID_4_" gradientUnits="userSpaceOnUse" x1="14.5" y1="44.3333" x2="14.5" y2="0.1607" gradientTransform="matrix(1 0 0 -1 0 45)">
			<stop  offset="0" style="stop-color:#3A9DF8"/>
			<stop  offset="1" style="stop-color:#115FA7"/>
		</linearGradient>
		<path class="st3" d="M17.2,34.3c-0.2-0.3-0.6-0.6-0.9-0.7c-0.3-0.1-0.8-0.3-1.4-0.5L14.7,33v-2.1c0.2,0,0.5,0.1,0.7,0.3
			c0.1,0.2,0.2,0.5,0.3,0.7h1.8c-0.1-0.7-0.3-1.1-0.8-1.6s-1.1-0.7-1.9-0.7v-1h-0.5v1c-0.4,0-0.8,0.1-1.1,0.1
			c-0.1,0-0.2,0.1-0.3,0.1c-0.4,0.2-0.8,0.5-1,0.8s-0.3,0.7-0.3,1.2c0,0.6,0.1,0.9,0.3,1.2s0.6,0.6,0.9,0.7c0.1,0.1,0.3,0.1,0.4,0.2
			c0.2,0.1,0.6,0.2,0.9,0.3l0.2,0.1v2.3c-0.3-0.1-0.6-0.2-0.8-0.5c-0.2-0.2-0.3-0.4-0.3-0.8h-1.7c0.1,0.7,0.3,1.2,0.8,1.7
			c0.2,0.2,0.6,0.3,0.9,0.6c0.3,0.1,0.7,0.2,1.1,0.2v0.9h0.3v-0.9c0.7,0,1.1-0.1,1.6-0.3c0.5-0.2,0.8-0.5,1-0.9
			c0.2-0.3,0.3-0.7,0.3-1.1C17.5,35,17.4,34.5,17.2,34.3z M14.4,32.8h-0.1c-0.3-0.1-0.6-0.3-0.8-0.5s-0.2-0.4-0.2-0.7
			c0-0.3,0.1-0.6,0.3-0.7s0.5-0.2,0.8-0.2V32.8z M15.5,36.3c-0.2,0.2-0.4,0.3-0.8,0.3v-2.1c0.3,0.1,0.7,0.2,0.8,0.5
			c0.2,0.2,0.3,0.5,0.3,0.7C15.9,35.9,15.7,36.1,15.5,36.3z"/>
	</g>
	<g>
		
			<linearGradient id="SVGID_5_" gradientUnits="userSpaceOnUse" x1="14.5" y1="44.3333" x2="14.5" y2="0.1607" gradientTransform="matrix(1 0 0 -1 0 45)">
			<stop  offset="0" style="stop-color:#3A9DF8"/>
			<stop  offset="1" style="stop-color:#115FA7"/>
		</linearGradient>
		<path class="st4" d="M17.2,34.3c-0.2-0.3-0.6-0.6-0.9-0.7c-0.3-0.1-0.8-0.3-1.4-0.5L14.7,33v-2.1c0.2,0,0.5,0.1,0.7,0.3
			c0.1,0.2,0.2,0.5,0.3,0.7h1.8c-0.1-0.7-0.3-1.1-0.8-1.6s-1.1-0.7-1.9-0.7v-1h-0.5v1c-0.4,0-0.8,0.1-1.1,0.1
			c-0.1,0-0.2,0.1-0.3,0.1c-0.4,0.2-0.8,0.5-1,0.8s-0.3,0.7-0.3,1.2c0,0.6,0.1,0.9,0.3,1.2s0.6,0.6,0.9,0.7c0.1,0.1,0.3,0.1,0.4,0.2
			c0.2,0.1,0.6,0.2,0.9,0.3l0.2,0.1v2.3c-0.3-0.1-0.6-0.2-0.8-0.5c-0.2-0.2-0.3-0.4-0.3-0.8h-1.7c0.1,0.7,0.3,1.2,0.8,1.7
			c0.2,0.2,0.6,0.3,0.9,0.6c0.3,0.1,0.7,0.2,1.1,0.2v0.9h0.3v-0.9c0.7,0,1.1-0.1,1.6-0.3c0.5-0.2,0.8-0.5,1-0.9
			c0.2-0.3,0.3-0.7,0.3-1.1C17.5,35,17.4,34.5,17.2,34.3z M14.4,32.8h-0.1c-0.3-0.1-0.6-0.3-0.8-0.5s-0.2-0.4-0.2-0.7
			c0-0.3,0.1-0.6,0.3-0.7s0.5-0.2,0.8-0.2V32.8z M15.5,36.3c-0.2,0.2-0.4,0.3-0.8,0.3v-2.1c0.3,0.1,0.7,0.2,0.8,0.5
			c0.2,0.2,0.3,0.5,0.3,0.7C15.9,35.9,15.7,36.1,15.5,36.3z"/>
	</g>
	<g>
		
			<linearGradient id="SVGID_6_" gradientUnits="userSpaceOnUse" x1="14.5" y1="44.3333" x2="14.5" y2="0.1607" gradientTransform="matrix(1 0 0 -1 0 45)">
			<stop  offset="0" style="stop-color:#3A9DF8"/>
			<stop  offset="1" style="stop-color:#115FA7"/>
		</linearGradient>
		<path class="st5" d="M17.2,34.3c-0.2-0.3-0.6-0.6-0.9-0.7c-0.3-0.1-0.8-0.3-1.4-0.5L14.7,33v-2.1c0.2,0,0.5,0.1,0.7,0.3
			c0.1,0.2,0.2,0.5,0.3,0.7h1.8c-0.1-0.7-0.3-1.1-0.8-1.6s-1.1-0.7-1.9-0.7v-1h-0.5v1c-0.4,0-0.8,0.1-1.1,0.1
			c-0.1,0-0.2,0.1-0.3,0.1c-0.4,0.2-0.8,0.5-1,0.8s-0.3,0.7-0.3,1.2c0,0.6,0.1,0.9,0.3,1.2s0.6,0.6,0.9,0.7c0.1,0.1,0.3,0.1,0.4,0.2
			c0.2,0.1,0.6,0.2,0.9,0.3l0.2,0.1v2.3c-0.3-0.1-0.6-0.2-0.8-0.5c-0.2-0.2-0.3-0.4-0.3-0.8h-1.7c0.1,0.7,0.3,1.2,0.8,1.7
			c0.2,0.2,0.6,0.3,0.9,0.6c0.3,0.1,0.7,0.2,1.1,0.2v0.9h0.3v-0.9c0.7,0,1.1-0.1,1.6-0.3c0.5-0.2,0.8-0.5,1-0.9
			c0.2-0.3,0.3-0.7,0.3-1.1C17.5,35,17.4,34.5,17.2,34.3z M14.4,32.8h-0.1c-0.3-0.1-0.6-0.3-0.8-0.5s-0.2-0.4-0.2-0.7
			c0-0.3,0.1-0.6,0.3-0.7s0.5-0.2,0.8-0.2V32.8z M15.5,36.3c-0.2,0.2-0.4,0.3-0.8,0.3v-2.1c0.3,0.1,0.7,0.2,0.8,0.5
			c0.2,0.2,0.3,0.5,0.3,0.7C15.9,35.9,15.7,36.1,15.5,36.3z"/>
	</g>
	<g>
		
			<linearGradient id="SVGID_7_" gradientUnits="userSpaceOnUse" x1="14.5" y1="44.3333" x2="14.5" y2="0.1607" gradientTransform="matrix(1 0 0 -1 0 45)">
			<stop  offset="0" style="stop-color:#3A9DF8"/>
			<stop  offset="1" style="stop-color:#115FA7"/>
		</linearGradient>
		<path class="st6" d="M17.2,34.3c-0.2-0.3-0.6-0.6-0.9-0.7c-0.3-0.1-0.8-0.3-1.4-0.5L14.7,33v-2.1c0.2,0,0.5,0.1,0.7,0.3
			c0.1,0.2,0.2,0.5,0.3,0.7h1.8c-0.1-0.7-0.3-1.1-0.8-1.6s-1.1-0.7-1.9-0.7v-1h-0.5v1c-0.4,0-0.8,0.1-1.1,0.1
			c-0.1,0-0.2,0.1-0.3,0.1c-0.4,0.2-0.8,0.5-1,0.8s-0.3,0.7-0.3,1.2c0,0.6,0.1,0.9,0.3,1.2s0.6,0.6,0.9,0.7c0.1,0.1,0.3,0.1,0.4,0.2
			c0.2,0.1,0.6,0.2,0.9,0.3l0.2,0.1v2.3c-0.3-0.1-0.6-0.2-0.8-0.5c-0.2-0.2-0.3-0.4-0.3-0.8h-1.7c0.1,0.7,0.3,1.2,0.8,1.7
			c0.2,0.2,0.6,0.3,0.9,0.6c0.3,0.1,0.7,0.2,1.1,0.2v0.9h0.3v-0.9c0.7,0,1.1-0.1,1.6-0.3c0.5-0.2,0.8-0.5,1-0.9
			c0.2-0.3,0.3-0.7,0.3-1.1C17.5,35,17.4,34.5,17.2,34.3z M14.4,32.8h-0.1c-0.3-0.1-0.6-0.3-0.8-0.5s-0.2-0.4-0.2-0.7
			c0-0.3,0.1-0.6,0.3-0.7s0.5-0.2,0.8-0.2V32.8z M15.5,36.3c-0.2,0.2-0.4,0.3-0.8,0.3v-2.1c0.3,0.1,0.7,0.2,0.8,0.5
			c0.2,0.2,0.3,0.5,0.3,0.7C15.9,35.9,15.7,36.1,15.5,36.3z"/>
	</g>
	<g>
		
			<linearGradient id="SVGID_8_" gradientUnits="userSpaceOnUse" x1="14.5" y1="44.3333" x2="14.5" y2="0.1607" gradientTransform="matrix(1 0 0 -1 0 45)">
			<stop  offset="0" style="stop-color:#3A9DF8"/>
			<stop  offset="1" style="stop-color:#115FA7"/>
		</linearGradient>
		<path class="st7" d="M17.2,34.3c-0.2-0.3-0.6-0.6-0.9-0.7c-0.3-0.1-0.8-0.3-1.4-0.5L14.7,33v-2.1c0.2,0,0.5,0.1,0.7,0.3
			c0.1,0.2,0.2,0.5,0.3,0.7h1.8c-0.1-0.7-0.3-1.1-0.8-1.6s-1.1-0.7-1.9-0.7v-1h-0.5v1c-0.4,0-0.8,0.1-1.1,0.1
			c-0.1,0-0.2,0.1-0.3,0.1c-0.4,0.2-0.8,0.5-1,0.8s-0.3,0.7-0.3,1.2c0,0.6,0.1,0.9,0.3,1.2s0.6,0.6,0.9,0.7c0.1,0.1,0.3,0.1,0.4,0.2
			c0.2,0.1,0.6,0.2,0.9,0.3l0.2,0.1v2.3c-0.3-0.1-0.6-0.2-0.8-0.5c-0.2-0.2-0.3-0.4-0.3-0.8h-1.7c0.1,0.7,0.3,1.2,0.8,1.7
			c0.2,0.2,0.6,0.3,0.9,0.6c0.3,0.1,0.7,0.2,1.1,0.2v0.9h0.3v-0.9c0.7,0,1.1-0.1,1.6-0.3c0.5-0.2,0.8-0.5,1-0.9
			c0.2-0.3,0.3-0.7,0.3-1.1C17.5,35,17.4,34.5,17.2,34.3z M14.4,32.8h-0.1c-0.3-0.1-0.6-0.3-0.8-0.5s-0.2-0.4-0.2-0.7
			c0-0.3,0.1-0.6,0.3-0.7s0.5-0.2,0.8-0.2V32.8z M15.5,36.3c-0.2,0.2-0.4,0.3-0.8,0.3v-2.1c0.3,0.1,0.7,0.2,0.8,0.5
			c0.2,0.2,0.3,0.5,0.3,0.7C15.9,35.9,15.7,36.1,15.5,36.3z"/>
	</g>
	<g>
		
			<linearGradient id="SVGID_9_" gradientUnits="userSpaceOnUse" x1="14.5" y1="44.3333" x2="14.5" y2="0.1607" gradientTransform="matrix(1 0 0 -1 0 45)">
			<stop  offset="0" style="stop-color:#3A9DF8"/>
			<stop  offset="1" style="stop-color:#115FA7"/>
		</linearGradient>
		<path class="st8" d="M17.2,34.3c-0.2-0.3-0.6-0.6-0.9-0.7c-0.3-0.1-0.8-0.3-1.4-0.5L14.7,33v-2.1c0.2,0,0.5,0.1,0.7,0.3
			c0.1,0.2,0.2,0.5,0.3,0.7h1.8c-0.1-0.7-0.3-1.1-0.8-1.6s-1.1-0.7-1.9-0.7v-1h-0.5v1c-0.4,0-0.8,0.1-1.1,0.1
			c-0.1,0-0.2,0.1-0.3,0.1c-0.4,0.2-0.8,0.5-1,0.8s-0.3,0.7-0.3,1.2c0,0.6,0.1,0.9,0.3,1.2s0.6,0.6,0.9,0.7c0.1,0.1,0.3,0.1,0.4,0.2
			c0.2,0.1,0.6,0.2,0.9,0.3l0.2,0.1v2.3c-0.3-0.1-0.6-0.2-0.8-0.5c-0.2-0.2-0.3-0.4-0.3-0.8h-1.7c0.1,0.7,0.3,1.2,0.8,1.7
			c0.2,0.2,0.6,0.3,0.9,0.6c0.3,0.1,0.7,0.2,1.1,0.2v0.9h0.3v-0.9c0.7,0,1.1-0.1,1.6-0.3c0.5-0.2,0.8-0.5,1-0.9
			c0.2-0.3,0.3-0.7,0.3-1.1C17.5,35,17.4,34.5,17.2,34.3z M14.4,32.8h-0.1c-0.3-0.1-0.6-0.3-0.8-0.5s-0.2-0.4-0.2-0.7
			c0-0.3,0.1-0.6,0.3-0.7s0.5-0.2,0.8-0.2V32.8z M15.5,36.3c-0.2,0.2-0.4,0.3-0.8,0.3v-2.1c0.3,0.1,0.7,0.2,0.8,0.5
			c0.2,0.2,0.3,0.5,0.3,0.7C15.9,35.9,15.7,36.1,15.5,36.3z"/>
	</g>
	<g>
		
			<linearGradient id="SVGID_10_" gradientUnits="userSpaceOnUse" x1="14.2563" y1="44.3333" x2="14.2563" y2="0.1607" gradientTransform="matrix(1 0 0 -1 0 45)">
			<stop  offset="0" style="stop-color:#3A9DF8"/>
			<stop  offset="1" style="stop-color:#115FA7"/>
		</linearGradient>
		<path class="st9" d="M17.2,34.3c-0.2-0.3-0.6-0.6-0.9-0.7c-0.3-0.1-0.8-0.3-1.4-0.5L14.7,33v-2.1c0.2,0,0.5,0.1,0.7,0.3
			c0.1,0.2,0.2,0.5,0.3,0.7h1.8c-0.1-0.7-0.3-1.1-0.8-1.6s-1.1-0.7-1.9-0.7v-1h-0.5v1c-0.4,0-0.8,0.1-1.1,0.1
			c-0.1,0-0.2,0.1-0.3,0.1c-0.4,0.2-0.8,0.5-1,0.8s-0.3,0.7-0.3,1.2c0,0.6,0.1,0.9,0.3,1.2s0.6,0.6,0.9,0.7c0.1,0.1,0.3,0.1,0.4,0.2
			c0.2,0.1,0.6,0.2,0.9,0.3l0.2,0.1v2.3c-0.3-0.1-0.6-0.2-0.8-0.5c-0.2-0.2-0.3-0.4-0.3-0.8h-1.7c0.1,0.7,0.3,1.2,0.8,1.7
			c0.2,0.2,0.6,0.3,0.9,0.6c0.3,0.1,0.7,0.2,1.1,0.2v0.9h0.3v-0.9c0.7,0,1.1-0.1,1.6-0.3c0.5-0.2,0.8-0.5,1-0.9
			c0.2-0.3,0.3-0.7,0.3-1.1C17.5,35,17.4,34.5,17.2,34.3z M14.4,32.8h-0.1c-0.3-0.1-0.6-0.3-0.8-0.5s-0.2-0.4-0.2-0.7
			c0-0.3,0.1-0.6,0.3-0.7s0.5-0.2,0.8-0.2V32.8z M15.5,36.3c-0.2,0.2-0.4,0.3-0.8,0.3v-2.1c0.3,0.1,0.7,0.2,0.8,0.5
			c0.2,0.2,0.3,0.5,0.3,0.7C15.9,35.9,15.7,36.1,15.5,36.3z M17.2,34.3c-0.2-0.3-0.6-0.6-0.9-0.7c-0.3-0.1-0.8-0.3-1.4-0.5L14.7,33
			v-2.1c0.2,0,0.5,0.1,0.7,0.3c0.1,0.2,0.2,0.5,0.3,0.7h1.8c-0.1-0.7-0.3-1.1-0.8-1.6s-1.1-0.7-1.9-0.7v-1h-0.5v1
			c-0.4,0-0.8,0.1-1.1,0.1c-0.1,0-0.2,0.1-0.3,0.1c-0.4,0.2-0.8,0.5-1,0.8s-0.3,0.7-0.3,1.2c0,0.6,0.1,0.9,0.3,1.2s0.6,0.6,0.9,0.7
			c0.1,0.1,0.3,0.1,0.4,0.2c0.2,0.1,0.6,0.2,0.9,0.3l0.2,0.1v2.3c-0.3-0.1-0.6-0.2-0.8-0.5c-0.2-0.2-0.3-0.4-0.3-0.8h-1.7
			c0.1,0.7,0.3,1.2,0.8,1.7c0.2,0.2,0.6,0.3,0.9,0.6c0.3,0.1,0.7,0.2,1.1,0.2v0.9h0.3v-0.9c0.7,0,1.1-0.1,1.6-0.3
			c0.5-0.2,0.8-0.5,1-0.9c0.2-0.3,0.3-0.7,0.3-1.1C17.5,35,17.4,34.5,17.2,34.3z M14.4,32.8h-0.1c-0.3-0.1-0.6-0.3-0.8-0.5
			s-0.2-0.4-0.2-0.7c0-0.3,0.1-0.6,0.3-0.7s0.5-0.2,0.8-0.2V32.8z M15.5,36.3c-0.2,0.2-0.4,0.3-0.8,0.3v-2.1
			c0.3,0.1,0.7,0.2,0.8,0.5c0.2,0.2,0.3,0.5,0.3,0.7C15.9,35.9,15.7,36.1,15.5,36.3z M17.2,34.3c-0.2-0.3-0.6-0.6-0.9-0.7
			c-0.3-0.1-0.8-0.3-1.4-0.5L14.7,33v-2.1c0.2,0,0.5,0.1,0.7,0.3c0.1,0.2,0.2,0.5,0.3,0.7h1.8c-0.1-0.7-0.3-1.1-0.8-1.6
			s-1.1-0.7-1.9-0.7v-1h-0.5v1c-0.4,0-0.8,0.1-1.1,0.1c-0.1,0-0.2,0.1-0.3,0.1c-0.4,0.2-0.8,0.5-1,0.8s-0.3,0.7-0.3,1.2
			c0,0.6,0.1,0.9,0.3,1.2s0.6,0.6,0.9,0.7c0.1,0.1,0.3,0.1,0.4,0.2c0.2,0.1,0.6,0.2,0.9,0.3l0.2,0.1v2.3c-0.3-0.1-0.6-0.2-0.8-0.5
			c-0.2-0.2-0.3-0.4-0.3-0.8h-1.7c0.1,0.7,0.3,1.2,0.8,1.7c0.2,0.2,0.6,0.3,0.9,0.6c0.3,0.1,0.7,0.2,1.1,0.2v0.9h0.3v-0.9
			c0.7,0,1.1-0.1,1.6-0.3c0.5-0.2,0.8-0.5,1-0.9c0.2-0.3,0.3-0.7,0.3-1.1C17.5,35,17.4,34.5,17.2,34.3z M14.4,32.8h-0.1
			c-0.3-0.1-0.6-0.3-0.8-0.5s-0.2-0.4-0.2-0.7c0-0.3,0.1-0.6,0.3-0.7s0.5-0.2,0.8-0.2V32.8z M15.5,36.3c-0.2,0.2-0.4,0.3-0.8,0.3
			v-2.1c0.3,0.1,0.7,0.2,0.8,0.5c0.2,0.2,0.3,0.5,0.3,0.7C15.9,35.9,15.7,36.1,15.5,36.3z M17.2,34.3c-0.2-0.3-0.6-0.6-0.9-0.7
			c-0.3-0.1-0.8-0.3-1.4-0.5L14.7,33v-2.1c0.2,0,0.5,0.1,0.7,0.3c0.1,0.2,0.2,0.5,0.3,0.7h1.8c-0.1-0.7-0.3-1.1-0.8-1.6
			s-1.1-0.7-1.9-0.7v-1h-0.5v1c-0.4,0-0.8,0.1-1.1,0.1c-0.1,0-0.2,0.1-0.3,0.1c-0.4,0.2-0.8,0.5-1,0.8s-0.3,0.7-0.3,1.2
			c0,0.6,0.1,0.9,0.3,1.2s0.6,0.6,0.9,0.7c0.1,0.1,0.3,0.1,0.4,0.2c0.2,0.1,0.6,0.2,0.9,0.3l0.2,0.1v2.3c-0.3-0.1-0.6-0.2-0.8-0.5
			c-0.2-0.2-0.3-0.4-0.3-0.8h-1.7c0.1,0.7,0.3,1.2,0.8,1.7c0.2,0.2,0.6,0.3,0.9,0.6c0.3,0.1,0.7,0.2,1.1,0.2v0.9h0.3v-0.9
			c0.7,0,1.1-0.1,1.6-0.3c0.5-0.2,0.8-0.5,1-0.9c0.2-0.3,0.3-0.7,0.3-1.1C17.5,35,17.4,34.5,17.2,34.3z M14.4,32.8h-0.1
			c-0.3-0.1-0.6-0.3-0.8-0.5s-0.2-0.4-0.2-0.7c0-0.3,0.1-0.6,0.3-0.7s0.5-0.2,0.8-0.2V32.8z M15.5,36.3c-0.2,0.2-0.4,0.3-0.8,0.3
			v-2.1c0.3,0.1,0.7,0.2,0.8,0.5c0.2,0.2,0.3,0.5,0.3,0.7C15.9,35.9,15.7,36.1,15.5,36.3z M17.2,34.3c-0.2-0.3-0.6-0.6-0.9-0.7
			c-0.3-0.1-0.8-0.3-1.4-0.5L14.7,33v-2.1c0.2,0,0.5,0.1,0.7,0.3c0.1,0.2,0.2,0.5,0.3,0.7h1.8c-0.1-0.7-0.3-1.1-0.8-1.6
			s-1.1-0.7-1.9-0.7v-1h-0.5v1c-0.4,0-0.8,0.1-1.1,0.1c-0.1,0-0.2,0.1-0.3,0.1c-0.4,0.2-0.8,0.5-1,0.8s-0.3,0.7-0.3,1.2
			c0,0.6,0.1,0.9,0.3,1.2s0.6,0.6,0.9,0.7c0.1,0.1,0.3,0.1,0.4,0.2c0.2,0.1,0.6,0.2,0.9,0.3l0.2,0.1v2.3c-0.3-0.1-0.6-0.2-0.8-0.5
			c-0.2-0.2-0.3-0.4-0.3-0.8h-1.7c0.1,0.7,0.3,1.2,0.8,1.7c0.2,0.2,0.6,0.3,0.9,0.6c0.3,0.1,0.7,0.2,1.1,0.2v0.9h0.3v-0.9
			c0.7,0,1.1-0.1,1.6-0.3c0.5-0.2,0.8-0.5,1-0.9c0.2-0.3,0.3-0.7,0.3-1.1C17.5,35,17.4,34.5,17.2,34.3z M14.4,32.8h-0.1
			c-0.3-0.1-0.6-0.3-0.8-0.5s-0.2-0.4-0.2-0.7c0-0.3,0.1-0.6,0.3-0.7s0.5-0.2,0.8-0.2V32.8z M15.5,36.3c-0.2,0.2-0.4,0.3-0.8,0.3
			v-2.1c0.3,0.1,0.7,0.2,0.8,0.5c0.2,0.2,0.3,0.5,0.3,0.7C15.9,35.9,15.7,36.1,15.5,36.3z M17.2,34.3c-0.2-0.3-0.6-0.6-0.9-0.7
			c-0.3-0.1-0.8-0.3-1.4-0.5L14.7,33v-2.1c0.2,0,0.5,0.1,0.7,0.3c0.1,0.2,0.2,0.5,0.3,0.7h1.8c-0.1-0.7-0.3-1.1-0.8-1.6
			s-1.1-0.7-1.9-0.7v-1h-0.5v1c-0.4,0-0.8,0.1-1.1,0.1c-0.1,0-0.2,0.1-0.3,0.1c-0.4,0.2-0.8,0.5-1,0.8s-0.3,0.7-0.3,1.2
			c0,0.6,0.1,0.9,0.3,1.2s0.6,0.6,0.9,0.7c0.1,0.1,0.3,0.1,0.4,0.2c0.2,0.1,0.6,0.2,0.9,0.3l0.2,0.1v2.3c-0.3-0.1-0.6-0.2-0.8-0.5
			c-0.2-0.2-0.3-0.4-0.3-0.8h-1.7c0.1,0.7,0.3,1.2,0.8,1.7c0.2,0.2,0.6,0.3,0.9,0.6c0.3,0.1,0.7,0.2,1.1,0.2v0.9h0.3v-0.9
			c0.7,0,1.1-0.1,1.6-0.3c0.5-0.2,0.8-0.5,1-0.9c0.2-0.3,0.3-0.7,0.3-1.1C17.5,35,17.4,34.5,17.2,34.3z M14.4,32.8h-0.1
			c-0.3-0.1-0.6-0.3-0.8-0.5s-0.2-0.4-0.2-0.7c0-0.3,0.1-0.6,0.3-0.7s0.5-0.2,0.8-0.2V32.8z M15.5,36.3c-0.2,0.2-0.4,0.3-0.8,0.3
			v-2.1c0.3,0.1,0.7,0.2,0.8,0.5c0.2,0.2,0.3,0.5,0.3,0.7C15.9,35.9,15.7,36.1,15.5,36.3z M17.2,34.3c-0.2-0.3-0.6-0.6-0.9-0.7
			c-0.3-0.1-0.8-0.3-1.4-0.5L14.7,33v-2.1c0.2,0,0.5,0.1,0.7,0.3c0.1,0.2,0.2,0.5,0.3,0.7h1.8c-0.1-0.7-0.3-1.1-0.8-1.6
			s-1.1-0.7-1.9-0.7v-1h-0.5v1c-0.4,0-0.8,0.1-1.1,0.1c-0.1,0-0.2,0.1-0.3,0.1c-0.4,0.2-0.8,0.5-1,0.8s-0.3,0.7-0.3,1.2
			c0,0.6,0.1,0.9,0.3,1.2s0.6,0.6,0.9,0.7c0.1,0.1,0.3,0.1,0.4,0.2c0.2,0.1,0.6,0.2,0.9,0.3l0.2,0.1v2.3c-0.3-0.1-0.6-0.2-0.8-0.5
			c-0.2-0.2-0.3-0.4-0.3-0.8h-1.7c0.1,0.7,0.3,1.2,0.8,1.7c0.2,0.2,0.6,0.3,0.9,0.6c0.3,0.1,0.7,0.2,1.1,0.2v0.9h0.3v-0.9
			c0.7,0,1.1-0.1,1.6-0.3c0.5-0.2,0.8-0.5,1-0.9c0.2-0.3,0.3-0.7,0.3-1.1C17.5,35,17.4,34.5,17.2,34.3z M14.4,32.8h-0.1
			c-0.3-0.1-0.6-0.3-0.8-0.5s-0.2-0.4-0.2-0.7c0-0.3,0.1-0.6,0.3-0.7s0.5-0.2,0.8-0.2V32.8z M15.5,36.3c-0.2,0.2-0.4,0.3-0.8,0.3
			v-2.1c0.3,0.1,0.7,0.2,0.8,0.5c0.2,0.2,0.3,0.5,0.3,0.7C15.9,35.9,15.7,36.1,15.5,36.3z M17.2,34.3c-0.2-0.3-0.6-0.6-0.9-0.7
			c-0.3-0.1-0.8-0.3-1.4-0.5L14.7,33v-2.1c0.2,0,0.5,0.1,0.7,0.3c0.1,0.2,0.2,0.5,0.3,0.7h1.8c-0.1-0.7-0.3-1.1-0.8-1.6
			s-1.1-0.7-1.9-0.7v-1h-0.5v1c-0.4,0-0.8,0.1-1.1,0.1c-0.1,0-0.2,0.1-0.3,0.1c-0.4,0.2-0.8,0.5-1,0.8s-0.3,0.7-0.3,1.2
			c0,0.6,0.1,0.9,0.3,1.2s0.6,0.6,0.9,0.7c0.1,0.1,0.3,0.1,0.4,0.2c0.2,0.1,0.6,0.2,0.9,0.3l0.2,0.1v2.3c-0.3-0.1-0.6-0.2-0.8-0.5
			c-0.2-0.2-0.3-0.4-0.3-0.8h-1.7c0.1,0.7,0.3,1.2,0.8,1.7c0.2,0.2,0.6,0.3,0.9,0.6c0.3,0.1,0.7,0.2,1.1,0.2v0.9h0.3v-0.9
			c0.7,0,1.1-0.1,1.6-0.3c0.5-0.2,0.8-0.5,1-0.9c0.2-0.3,0.3-0.7,0.3-1.1C17.5,35,17.4,34.5,17.2,34.3z M14.4,32.8h-0.1
			c-0.3-0.1-0.6-0.3-0.8-0.5s-0.2-0.4-0.2-0.7c0-0.3,0.1-0.6,0.3-0.7s0.5-0.2,0.8-0.2V32.8z M15.5,36.3c-0.2,0.2-0.4,0.3-0.8,0.3
			v-2.1c0.3,0.1,0.7,0.2,0.8,0.5c0.2,0.2,0.3,0.5,0.3,0.7C15.9,35.9,15.7,36.1,15.5,36.3z M14.4,22.4c-0.4,0-0.9,0-1.3,0.1
			C7.4,23.2,3,27.9,3,33.8C3,39.9,8.1,45,14.3,45c3.3,0,6.3-1.5,8.3-3.7c1.8-2,2.9-4.7,2.9-7.6C25.8,27.5,20.7,22.4,14.4,22.4z
			 M21.6,26.8c1.2,1.2,2,2.7,2.6,4.3l-1.8,0.6c-0.3-1.3-1.1-2.5-2-3.5L21.6,26.8z M14.7,23.8c1.7,0,3.3,0.5,4.7,1.2l-0.9,1.7
			c-1.1-0.7-2.5-1-3.8-1V23.8z M11.8,24.3l0.6,1.8c-1.4,0.3-2.5,1.1-3.5,2l-1.4-1.4C8.7,25.6,10.1,24.8,11.8,24.3z M5.8,29l1.7,0.9
			c-0.7,1.2-1,2.5-1,3.8H4.6C4.6,32.1,5.1,30.5,5.8,29z M7.5,40.8c-1.2-1.2-2-2.7-2.6-4.3L6.8,36c0.3,1.3,1.1,2.5,2,3.5L7.5,40.8z
			 M8,33.8c0-3.2,2.2-5.7,5.2-6.3c0.5-0.2,0.8-0.2,1.2-0.2c3.6,0,6.5,2.9,6.5,6.5s-2.9,6.5-6.5,6.5c-0.3,0-0.7,0-1-0.1
			C10.3,39.6,8,36.9,8,33.8z M14.6,43.8c-1.7,0-3.4-0.5-4.8-1.2l0.9-1.7c1.2,0.7,2.5,1,3.9,1V43.8z M21,41.4c-1,0.9-2.3,1.6-3.7,2
			l-0.6-1.8c0.2-0.1,0.4-0.1,0.7-0.2c1-0.4,1.9-1,2.7-1.8l1.4,1.4C21.4,41.1,21.1,41.3,21,41.4z M21.6,37.8c0.7-1.2,1-2.6,1-3.9h1.9
			c0,1.7-0.4,3.4-1.2,4.8L21.6,37.8z M14.4,38.8h0.3v-0.9c0.7,0,1.1-0.1,1.6-0.3c0.5-0.2,0.8-0.5,1-0.9c0.2-0.3,0.3-0.7,0.3-1.1
			c-0.1-0.6-0.2-1-0.5-1.2c-0.2-0.3-0.6-0.6-0.9-0.7c-0.3-0.1-0.8-0.3-1.4-0.5L14.7,33v-2.1c0.2,0,0.5,0.1,0.7,0.3
			c0.1,0.2,0.2,0.5,0.3,0.7h1.8c-0.1-0.7-0.3-1.1-0.8-1.6s-1.1-0.7-1.9-0.7v-1h-0.5v1c-0.4,0-0.8,0.1-1.1,0.1
			c-0.1,0-0.2,0.1-0.3,0.1c-0.4,0.2-0.8,0.5-1,0.8s-0.3,0.7-0.3,1.2c0,0.6,0.1,0.9,0.3,1.2s0.6,0.6,0.9,0.7c0.1,0.1,0.3,0.1,0.4,0.2
			c0.2,0.1,0.6,0.2,0.9,0.3l0.2,0.1v2.3c-0.3-0.1-0.6-0.2-0.8-0.5c-0.2-0.2-0.3-0.4-0.3-0.8h-1.7c0.1,0.7,0.3,1.2,0.8,1.7
			c0.2,0.2,0.6,0.3,0.9,0.6c0.3,0.1,0.7,0.2,1.1,0.2v1H14.4z M14.7,34.5c0.3,0.1,0.7,0.2,0.8,0.5c0.2,0.2,0.3,0.5,0.3,0.7
			s-0.1,0.5-0.3,0.7s-0.4,0.3-0.8,0.3V34.5z M14.3,32.8c-0.3-0.1-0.6-0.3-0.8-0.5s-0.2-0.4-0.2-0.7c0-0.3,0.1-0.6,0.3-0.7
			s0.5-0.2,0.8-0.2v2h-0.1V32.8z M17.2,34.3c-0.2-0.3-0.6-0.6-0.9-0.7c-0.3-0.1-0.8-0.3-1.4-0.5L14.7,33v-2.1c0.2,0,0.5,0.1,0.7,0.3
			c0.1,0.2,0.2,0.5,0.3,0.7h1.8c-0.1-0.7-0.3-1.1-0.8-1.6s-1.1-0.7-1.9-0.7v-1h-0.5v1c-0.4,0-0.8,0.1-1.1,0.1
			c-0.1,0-0.2,0.1-0.3,0.1c-0.4,0.2-0.8,0.5-1,0.8s-0.3,0.7-0.3,1.2c0,0.6,0.1,0.9,0.3,1.2s0.6,0.6,0.9,0.7c0.1,0.1,0.3,0.1,0.4,0.2
			c0.2,0.1,0.6,0.2,0.9,0.3l0.2,0.1v2.3c-0.3-0.1-0.6-0.2-0.8-0.5c-0.2-0.2-0.3-0.4-0.3-0.8h-1.7c0.1,0.7,0.3,1.2,0.8,1.7
			c0.2,0.2,0.6,0.3,0.9,0.6c0.3,0.1,0.7,0.2,1.1,0.2v0.9h0.3v-0.9c0.7,0,1.1-0.1,1.6-0.3c0.5-0.2,0.8-0.5,1-0.9
			c0.2-0.3,0.3-0.7,0.3-1.1C17.5,35,17.4,34.5,17.2,34.3z M14.4,32.8h-0.1c-0.3-0.1-0.6-0.3-0.8-0.5s-0.2-0.4-0.2-0.7
			c0-0.3,0.1-0.6,0.3-0.7s0.5-0.2,0.8-0.2V32.8z M15.5,36.3c-0.2,0.2-0.4,0.3-0.8,0.3v-2.1c0.3,0.1,0.7,0.2,0.8,0.5
			c0.2,0.2,0.3,0.5,0.3,0.7C15.9,35.9,15.7,36.1,15.5,36.3z M17.2,34.3c-0.2-0.3-0.6-0.6-0.9-0.7c-0.3-0.1-0.8-0.3-1.4-0.5L14.7,33
			v-2.1c0.2,0,0.5,0.1,0.7,0.3c0.1,0.2,0.2,0.5,0.3,0.7h1.8c-0.1-0.7-0.3-1.1-0.8-1.6s-1.1-0.7-1.9-0.7v-1h-0.5v1
			c-0.4,0-0.8,0.1-1.1,0.1c-0.1,0-0.2,0.1-0.3,0.1c-0.4,0.2-0.8,0.5-1,0.8s-0.3,0.7-0.3,1.2c0,0.6,0.1,0.9,0.3,1.2s0.6,0.6,0.9,0.7
			c0.1,0.1,0.3,0.1,0.4,0.2c0.2,0.1,0.6,0.2,0.9,0.3l0.2,0.1v2.3c-0.3-0.1-0.6-0.2-0.8-0.5c-0.2-0.2-0.3-0.4-0.3-0.8h-1.7
			c0.1,0.7,0.3,1.2,0.8,1.7c0.2,0.2,0.6,0.3,0.9,0.6c0.3,0.1,0.7,0.2,1.1,0.2v0.9h0.3v-0.9c0.7,0,1.1-0.1,1.6-0.3
			c0.5-0.2,0.8-0.5,1-0.9c0.2-0.3,0.3-0.7,0.3-1.1C17.5,35,17.4,34.5,17.2,34.3z M14.4,32.8h-0.1c-0.3-0.1-0.6-0.3-0.8-0.5
			s-0.2-0.4-0.2-0.7c0-0.3,0.1-0.6,0.3-0.7s0.5-0.2,0.8-0.2V32.8z M15.5,36.3c-0.2,0.2-0.4,0.3-0.8,0.3v-2.1
			c0.3,0.1,0.7,0.2,0.8,0.5c0.2,0.2,0.3,0.5,0.3,0.7C15.9,35.9,15.7,36.1,15.5,36.3z M17.2,34.3c-0.2-0.3-0.6-0.6-0.9-0.7
			c-0.3-0.1-0.8-0.3-1.4-0.5L14.7,33v-2.1c0.2,0,0.5,0.1,0.7,0.3c0.1,0.2,0.2,0.5,0.3,0.7h1.8c-0.1-0.7-0.3-1.1-0.8-1.6
			s-1.1-0.7-1.9-0.7v-1h-0.5v1c-0.4,0-0.8,0.1-1.1,0.1c-0.1,0-0.2,0.1-0.3,0.1c-0.4,0.2-0.8,0.5-1,0.8s-0.3,0.7-0.3,1.2
			c0,0.6,0.1,0.9,0.3,1.2s0.6,0.6,0.9,0.7c0.1,0.1,0.3,0.1,0.4,0.2c0.2,0.1,0.6,0.2,0.9,0.3l0.2,0.1v2.3c-0.3-0.1-0.6-0.2-0.8-0.5
			c-0.2-0.2-0.3-0.4-0.3-0.8h-1.7c0.1,0.7,0.3,1.2,0.8,1.7c0.2,0.2,0.6,0.3,0.9,0.6c0.3,0.1,0.7,0.2,1.1,0.2v0.9h0.3v-0.9
			c0.7,0,1.1-0.1,1.6-0.3c0.5-0.2,0.8-0.5,1-0.9c0.2-0.3,0.3-0.7,0.3-1.1C17.5,35,17.4,34.5,17.2,34.3z M14.4,32.8h-0.1
			c-0.3-0.1-0.6-0.3-0.8-0.5s-0.2-0.4-0.2-0.7c0-0.3,0.1-0.6,0.3-0.7s0.5-0.2,0.8-0.2V32.8z M15.5,36.3c-0.2,0.2-0.4,0.3-0.8,0.3
			v-2.1c0.3,0.1,0.7,0.2,0.8,0.5c0.2,0.2,0.3,0.5,0.3,0.7C15.9,35.9,15.7,36.1,15.5,36.3z M17.2,34.3c-0.2-0.3-0.6-0.6-0.9-0.7
			c-0.3-0.1-0.8-0.3-1.4-0.5L14.7,33v-2.1c0.2,0,0.5,0.1,0.7,0.3c0.1,0.2,0.2,0.5,0.3,0.7h1.8c-0.1-0.7-0.3-1.1-0.8-1.6
			s-1.1-0.7-1.9-0.7v-1h-0.5v1c-0.4,0-0.8,0.1-1.1,0.1c-0.1,0-0.2,0.1-0.3,0.1c-0.4,0.2-0.8,0.5-1,0.8s-0.3,0.7-0.3,1.2
			c0,0.6,0.1,0.9,0.3,1.2s0.6,0.6,0.9,0.7c0.1,0.1,0.3,0.1,0.4,0.2c0.2,0.1,0.6,0.2,0.9,0.3l0.2,0.1v2.3c-0.3-0.1-0.6-0.2-0.8-0.5
			c-0.2-0.2-0.3-0.4-0.3-0.8h-1.7c0.1,0.7,0.3,1.2,0.8,1.7c0.2,0.2,0.6,0.3,0.9,0.6c0.3,0.1,0.7,0.2,1.1,0.2v0.9h0.3v-0.9
			c0.7,0,1.1-0.1,1.6-0.3c0.5-0.2,0.8-0.5,1-0.9c0.2-0.3,0.3-0.7,0.3-1.1C17.5,35,17.4,34.5,17.2,34.3z M14.4,32.8h-0.1
			c-0.3-0.1-0.6-0.3-0.8-0.5s-0.2-0.4-0.2-0.7c0-0.3,0.1-0.6,0.3-0.7s0.5-0.2,0.8-0.2V32.8z M15.5,36.3c-0.2,0.2-0.4,0.3-0.8,0.3
			v-2.1c0.3,0.1,0.7,0.2,0.8,0.5c0.2,0.2,0.3,0.5,0.3,0.7C15.9,35.9,15.7,36.1,15.5,36.3z M17.2,34.3c-0.2-0.3-0.6-0.6-0.9-0.7
			c-0.3-0.1-0.8-0.3-1.4-0.5L14.7,33v-2.1c0.2,0,0.5,0.1,0.7,0.3c0.1,0.2,0.2,0.5,0.3,0.7h1.8c-0.1-0.7-0.3-1.1-0.8-1.6
			s-1.1-0.7-1.9-0.7v-1h-0.5v1c-0.4,0-0.8,0.1-1.1,0.1c-0.1,0-0.2,0.1-0.3,0.1c-0.4,0.2-0.8,0.5-1,0.8s-0.3,0.7-0.3,1.2
			c0,0.6,0.1,0.9,0.3,1.2s0.6,0.6,0.9,0.7c0.1,0.1,0.3,0.1,0.4,0.2c0.2,0.1,0.6,0.2,0.9,0.3l0.2,0.1v2.3c-0.3-0.1-0.6-0.2-0.8-0.5
			c-0.2-0.2-0.3-0.4-0.3-0.8h-1.7c0.1,0.7,0.3,1.2,0.8,1.7c0.2,0.2,0.6,0.3,0.9,0.6c0.3,0.1,0.7,0.2,1.1,0.2v0.9h0.3v-0.9
			c0.7,0,1.1-0.1,1.6-0.3c0.5-0.2,0.8-0.5,1-0.9c0.2-0.3,0.3-0.7,0.3-1.1C17.5,35,17.4,34.5,17.2,34.3z M14.4,32.8h-0.1
			c-0.3-0.1-0.6-0.3-0.8-0.5s-0.2-0.4-0.2-0.7c0-0.3,0.1-0.6,0.3-0.7s0.5-0.2,0.8-0.2V32.8z M15.5,36.3c-0.2,0.2-0.4,0.3-0.8,0.3
			v-2.1c0.3,0.1,0.7,0.2,0.8,0.5c0.2,0.2,0.3,0.5,0.3,0.7C15.9,35.9,15.7,36.1,15.5,36.3z M17.2,34.3c-0.2-0.3-0.6-0.6-0.9-0.7
			c-0.3-0.1-0.8-0.3-1.4-0.5L14.7,33v-2.1c0.2,0,0.5,0.1,0.7,0.3c0.1,0.2,0.2,0.5,0.3,0.7h1.8c-0.1-0.7-0.3-1.1-0.8-1.6
			s-1.1-0.7-1.9-0.7v-1h-0.5v1c-0.4,0-0.8,0.1-1.1,0.1c-0.1,0-0.2,0.1-0.3,0.1c-0.4,0.2-0.8,0.5-1,0.8s-0.3,0.7-0.3,1.2
			c0,0.6,0.1,0.9,0.3,1.2s0.6,0.6,0.9,0.7c0.1,0.1,0.3,0.1,0.4,0.2c0.2,0.1,0.6,0.2,0.9,0.3l0.2,0.1v2.3c-0.3-0.1-0.6-0.2-0.8-0.5
			c-0.2-0.2-0.3-0.4-0.3-0.8h-1.7c0.1,0.7,0.3,1.2,0.8,1.7c0.2,0.2,0.6,0.3,0.9,0.6c0.3,0.1,0.7,0.2,1.1,0.2v0.9h0.3v-0.9
			c0.7,0,1.1-0.1,1.6-0.3c0.5-0.2,0.8-0.5,1-0.9c0.2-0.3,0.3-0.7,0.3-1.1C17.5,35,17.4,34.5,17.2,34.3z M14.4,32.8h-0.1
			c-0.3-0.1-0.6-0.3-0.8-0.5s-0.2-0.4-0.2-0.7c0-0.3,0.1-0.6,0.3-0.7s0.5-0.2,0.8-0.2V32.8z M15.5,36.3c-0.2,0.2-0.4,0.3-0.8,0.3
			v-2.1c0.3,0.1,0.7,0.2,0.8,0.5c0.2,0.2,0.3,0.5,0.3,0.7C15.9,35.9,15.7,36.1,15.5,36.3z M17.2,34.3c-0.2-0.3-0.6-0.6-0.9-0.7
			c-0.3-0.1-0.8-0.3-1.4-0.5L14.7,33v-2.1c0.2,0,0.5,0.1,0.7,0.3c0.1,0.2,0.2,0.5,0.3,0.7h1.8c-0.1-0.7-0.3-1.1-0.8-1.6
			s-1.1-0.7-1.9-0.7v-1h-0.5v1c-0.4,0-0.8,0.1-1.1,0.1c-0.1,0-0.2,0.1-0.3,0.1c-0.4,0.2-0.8,0.5-1,0.8s-0.3,0.7-0.3,1.2
			c0,0.6,0.1,0.9,0.3,1.2s0.6,0.6,0.9,0.7c0.1,0.1,0.3,0.1,0.4,0.2c0.2,0.1,0.6,0.2,0.9,0.3l0.2,0.1v2.3c-0.3-0.1-0.6-0.2-0.8-0.5
			c-0.2-0.2-0.3-0.4-0.3-0.8h-1.7c0.1,0.7,0.3,1.2,0.8,1.7c0.2,0.2,0.6,0.3,0.9,0.6c0.3,0.1,0.7,0.2,1.1,0.2v0.9h0.3v-0.9
			c0.7,0,1.1-0.1,1.6-0.3c0.5-0.2,0.8-0.5,1-0.9c0.2-0.3,0.3-0.7,0.3-1.1C17.5,35,17.4,34.5,17.2,34.3z M14.4,32.8h-0.1
			c-0.3-0.1-0.6-0.3-0.8-0.5s-0.2-0.4-0.2-0.7c0-0.3,0.1-0.6,0.3-0.7s0.5-0.2,0.8-0.2V32.8z M15.5,36.3c-0.2,0.2-0.4,0.3-0.8,0.3
			v-2.1c0.3,0.1,0.7,0.2,0.8,0.5c0.2,0.2,0.3,0.5,0.3,0.7C15.9,35.9,15.7,36.1,15.5,36.3z M17.2,34.3c-0.2-0.3-0.6-0.6-0.9-0.7
			c-0.3-0.1-0.8-0.3-1.4-0.5L14.7,33v-2.1c0.2,0,0.5,0.1,0.7,0.3c0.1,0.2,0.2,0.5,0.3,0.7h1.8c-0.1-0.7-0.3-1.1-0.8-1.6
			s-1.1-0.7-1.9-0.7v-1h-0.5v1c-0.4,0-0.8,0.1-1.1,0.1c-0.1,0-0.2,0.1-0.3,0.1c-0.4,0.2-0.8,0.5-1,0.8s-0.3,0.7-0.3,1.2
			c0,0.6,0.1,0.9,0.3,1.2s0.6,0.6,0.9,0.7c0.1,0.1,0.3,0.1,0.4,0.2c0.2,0.1,0.6,0.2,0.9,0.3l0.2,0.1v2.3c-0.3-0.1-0.6-0.2-0.8-0.5
			c-0.2-0.2-0.3-0.4-0.3-0.8h-1.7c0.1,0.7,0.3,1.2,0.8,1.7c0.2,0.2,0.6,0.3,0.9,0.6c0.3,0.1,0.7,0.2,1.1,0.2v0.9h0.3v-0.9
			c0.7,0,1.1-0.1,1.6-0.3c0.5-0.2,0.8-0.5,1-0.9c0.2-0.3,0.3-0.7,0.3-1.1C17.5,35,17.4,34.5,17.2,34.3z M14.4,32.8h-0.1
			c-0.3-0.1-0.6-0.3-0.8-0.5s-0.2-0.4-0.2-0.7c0-0.3,0.1-0.6,0.3-0.7s0.5-0.2,0.8-0.2V32.8z M15.5,36.3c-0.2,0.2-0.4,0.3-0.8,0.3
			v-2.1c0.3,0.1,0.7,0.2,0.8,0.5c0.2,0.2,0.3,0.5,0.3,0.7C15.9,35.9,15.7,36.1,15.5,36.3z"/>
		
			<linearGradient id="SVGID_11_" gradientUnits="userSpaceOnUse" x1="14.5" y1="44.3333" x2="14.5" y2="0.1607" gradientTransform="matrix(1 0 0 -1 0 45)">
			<stop  offset="0" style="stop-color:#3A9DF8"/>
			<stop  offset="1" style="stop-color:#115FA7"/>
		</linearGradient>
		<path class="st10" d="M17.2,34.3c-0.2-0.3-0.6-0.6-0.9-0.7c-0.3-0.1-0.8-0.3-1.4-0.5L14.7,33v-2.1c0.2,0,0.5,0.1,0.7,0.3
			c0.1,0.2,0.2,0.5,0.3,0.7h1.8c-0.1-0.7-0.3-1.1-0.8-1.6s-1.1-0.7-1.9-0.7v-1h-0.5v1c-0.4,0-0.8,0.1-1.1,0.1
			c-0.1,0-0.2,0.1-0.3,0.1c-0.4,0.2-0.8,0.5-1,0.8s-0.3,0.7-0.3,1.2c0,0.6,0.1,0.9,0.3,1.2s0.6,0.6,0.9,0.7c0.1,0.1,0.3,0.1,0.4,0.2
			c0.2,0.1,0.6,0.2,0.9,0.3l0.2,0.1v2.3c-0.3-0.1-0.6-0.2-0.8-0.5c-0.2-0.2-0.3-0.4-0.3-0.8h-1.7c0.1,0.7,0.3,1.2,0.8,1.7
			c0.2,0.2,0.6,0.3,0.9,0.6c0.3,0.1,0.7,0.2,1.1,0.2v0.9h0.3v-0.9c0.7,0,1.1-0.1,1.6-0.3c0.5-0.2,0.8-0.5,1-0.9
			c0.2-0.3,0.3-0.7,0.3-1.1C17.5,35,17.4,34.5,17.2,34.3z M14.4,32.8h-0.1c-0.3-0.1-0.6-0.3-0.8-0.5s-0.2-0.4-0.2-0.7
			c0-0.3,0.1-0.6,0.3-0.7s0.5-0.2,0.8-0.2V32.8z M15.5,36.3c-0.2,0.2-0.4,0.3-0.8,0.3v-2.1c0.3,0.1,0.7,0.2,0.8,0.5
			c0.2,0.2,0.3,0.5,0.3,0.7C15.9,35.9,15.7,36.1,15.5,36.3z"/>
	</g>
	<g>
		
			<linearGradient id="SVGID_12_" gradientUnits="userSpaceOnUse" x1="14.5" y1="44.3333" x2="14.5" y2="0.1607" gradientTransform="matrix(1 0 0 -1 0 45)">
			<stop  offset="0" style="stop-color:#3A9DF8"/>
			<stop  offset="1" style="stop-color:#115FA7"/>
		</linearGradient>
		<path class="st11" d="M17.2,34.3c-0.2-0.3-0.6-0.6-0.9-0.7c-0.3-0.1-0.8-0.3-1.4-0.5L14.7,33v-2.1c0.2,0,0.5,0.1,0.7,0.3
			c0.1,0.2,0.2,0.5,0.3,0.7h1.8c-0.1-0.7-0.3-1.1-0.8-1.6s-1.1-0.7-1.9-0.7v-1h-0.5v1c-0.4,0-0.8,0.1-1.1,0.1
			c-0.1,0-0.2,0.1-0.3,0.1c-0.4,0.2-0.8,0.5-1,0.8s-0.3,0.7-0.3,1.2c0,0.6,0.1,0.9,0.3,1.2s0.6,0.6,0.9,0.7c0.1,0.1,0.3,0.1,0.4,0.2
			c0.2,0.1,0.6,0.2,0.9,0.3l0.2,0.1v2.3c-0.3-0.1-0.6-0.2-0.8-0.5c-0.2-0.2-0.3-0.4-0.3-0.8h-1.7c0.1,0.7,0.3,1.2,0.8,1.7
			c0.2,0.2,0.6,0.3,0.9,0.6c0.3,0.1,0.7,0.2,1.1,0.2v0.9h0.3v-0.9c0.7,0,1.1-0.1,1.6-0.3c0.5-0.2,0.8-0.5,1-0.9
			c0.2-0.3,0.3-0.7,0.3-1.1C17.5,35,17.4,34.5,17.2,34.3z M14.4,32.8h-0.1c-0.3-0.1-0.6-0.3-0.8-0.5s-0.2-0.4-0.2-0.7
			c0-0.3,0.1-0.6,0.3-0.7s0.5-0.2,0.8-0.2V32.8z M15.5,36.3c-0.2,0.2-0.4,0.3-0.8,0.3v-2.1c0.3,0.1,0.7,0.2,0.8,0.5
			c0.2,0.2,0.3,0.5,0.3,0.7C15.9,35.9,15.7,36.1,15.5,36.3z"/>
	</g>
	<g>
		
			<linearGradient id="SVGID_13_" gradientUnits="userSpaceOnUse" x1="14.5" y1="44.3333" x2="14.5" y2="0.1607" gradientTransform="matrix(1 0 0 -1 0 45)">
			<stop  offset="0" style="stop-color:#3A9DF8"/>
			<stop  offset="1" style="stop-color:#115FA7"/>
		</linearGradient>
		<path class="st12" d="M17.2,34.3c-0.2-0.3-0.6-0.6-0.9-0.7c-0.3-0.1-0.8-0.3-1.4-0.5L14.7,33v-2.1c0.2,0,0.5,0.1,0.7,0.3
			c0.1,0.2,0.2,0.5,0.3,0.7h1.8c-0.1-0.7-0.3-1.1-0.8-1.6s-1.1-0.7-1.9-0.7v-1h-0.5v1c-0.4,0-0.8,0.1-1.1,0.1
			c-0.1,0-0.2,0.1-0.3,0.1c-0.4,0.2-0.8,0.5-1,0.8s-0.3,0.7-0.3,1.2c0,0.6,0.1,0.9,0.3,1.2s0.6,0.6,0.9,0.7c0.1,0.1,0.3,0.1,0.4,0.2
			c0.2,0.1,0.6,0.2,0.9,0.3l0.2,0.1v2.3c-0.3-0.1-0.6-0.2-0.8-0.5c-0.2-0.2-0.3-0.4-0.3-0.8h-1.7c0.1,0.7,0.3,1.2,0.8,1.7
			c0.2,0.2,0.6,0.3,0.9,0.6c0.3,0.1,0.7,0.2,1.1,0.2v0.9h0.3v-0.9c0.7,0,1.1-0.1,1.6-0.3c0.5-0.2,0.8-0.5,1-0.9
			c0.2-0.3,0.3-0.7,0.3-1.1C17.5,35,17.4,34.5,17.2,34.3z M14.4,32.8h-0.1c-0.3-0.1-0.6-0.3-0.8-0.5s-0.2-0.4-0.2-0.7
			c0-0.3,0.1-0.6,0.3-0.7s0.5-0.2,0.8-0.2V32.8z M15.5,36.3c-0.2,0.2-0.4,0.3-0.8,0.3v-2.1c0.3,0.1,0.7,0.2,0.8,0.5
			c0.2,0.2,0.3,0.5,0.3,0.7C15.9,35.9,15.7,36.1,15.5,36.3z"/>
	</g>
	<g>
		
			<linearGradient id="SVGID_14_" gradientUnits="userSpaceOnUse" x1="14.5" y1="44.3333" x2="14.5" y2="0.1607" gradientTransform="matrix(1 0 0 -1 0 45)">
			<stop  offset="0" style="stop-color:#3A9DF8"/>
			<stop  offset="1" style="stop-color:#115FA7"/>
		</linearGradient>
		<path class="st13" d="M17.2,34.3c-0.2-0.3-0.6-0.6-0.9-0.7c-0.3-0.1-0.8-0.3-1.4-0.5L14.7,33v-2.1c0.2,0,0.5,0.1,0.7,0.3
			c0.1,0.2,0.2,0.5,0.3,0.7h1.8c-0.1-0.7-0.3-1.1-0.8-1.6s-1.1-0.7-1.9-0.7v-1h-0.5v1c-0.4,0-0.8,0.1-1.1,0.1
			c-0.1,0-0.2,0.1-0.3,0.1c-0.4,0.2-0.8,0.5-1,0.8s-0.3,0.7-0.3,1.2c0,0.6,0.1,0.9,0.3,1.2s0.6,0.6,0.9,0.7c0.1,0.1,0.3,0.1,0.4,0.2
			c0.2,0.1,0.6,0.2,0.9,0.3l0.2,0.1v2.3c-0.3-0.1-0.6-0.2-0.8-0.5c-0.2-0.2-0.3-0.4-0.3-0.8h-1.7c0.1,0.7,0.3,1.2,0.8,1.7
			c0.2,0.2,0.6,0.3,0.9,0.6c0.3,0.1,0.7,0.2,1.1,0.2v0.9h0.3v-0.9c0.7,0,1.1-0.1,1.6-0.3c0.5-0.2,0.8-0.5,1-0.9
			c0.2-0.3,0.3-0.7,0.3-1.1C17.5,35,17.4,34.5,17.2,34.3z M14.4,32.8h-0.1c-0.3-0.1-0.6-0.3-0.8-0.5s-0.2-0.4-0.2-0.7
			c0-0.3,0.1-0.6,0.3-0.7s0.5-0.2,0.8-0.2V32.8z M15.5,36.3c-0.2,0.2-0.4,0.3-0.8,0.3v-2.1c0.3,0.1,0.7,0.2,0.8,0.5
			c0.2,0.2,0.3,0.5,0.3,0.7C15.9,35.9,15.7,36.1,15.5,36.3z"/>
	</g>
	<g>
		
			<linearGradient id="SVGID_15_" gradientUnits="userSpaceOnUse" x1="14.5" y1="44.3333" x2="14.5" y2="0.1607" gradientTransform="matrix(1 0 0 -1 0 45)">
			<stop  offset="0" style="stop-color:#3A9DF8"/>
			<stop  offset="1" style="stop-color:#115FA7"/>
		</linearGradient>
		<path class="st14" d="M17.2,34.3c-0.2-0.3-0.6-0.6-0.9-0.7c-0.3-0.1-0.8-0.3-1.4-0.5L14.7,33v-2.1c0.2,0,0.5,0.1,0.7,0.3
			c0.1,0.2,0.2,0.5,0.3,0.7h1.8c-0.1-0.7-0.3-1.1-0.8-1.6s-1.1-0.7-1.9-0.7v-1h-0.5v1c-0.4,0-0.8,0.1-1.1,0.1
			c-0.1,0-0.2,0.1-0.3,0.1c-0.4,0.2-0.8,0.5-1,0.8s-0.3,0.7-0.3,1.2c0,0.6,0.1,0.9,0.3,1.2s0.6,0.6,0.9,0.7c0.1,0.1,0.3,0.1,0.4,0.2
			c0.2,0.1,0.6,0.2,0.9,0.3l0.2,0.1v2.3c-0.3-0.1-0.6-0.2-0.8-0.5c-0.2-0.2-0.3-0.4-0.3-0.8h-1.7c0.1,0.7,0.3,1.2,0.8,1.7
			c0.2,0.2,0.6,0.3,0.9,0.6c0.3,0.1,0.7,0.2,1.1,0.2v0.9h0.3v-0.9c0.7,0,1.1-0.1,1.6-0.3c0.5-0.2,0.8-0.5,1-0.9
			c0.2-0.3,0.3-0.7,0.3-1.1C17.5,35,17.4,34.5,17.2,34.3z M14.4,32.8h-0.1c-0.3-0.1-0.6-0.3-0.8-0.5s-0.2-0.4-0.2-0.7
			c0-0.3,0.1-0.6,0.3-0.7s0.5-0.2,0.8-0.2V32.8z M15.5,36.3c-0.2,0.2-0.4,0.3-0.8,0.3v-2.1c0.3,0.1,0.7,0.2,0.8,0.5
			c0.2,0.2,0.3,0.5,0.3,0.7C15.9,35.9,15.7,36.1,15.5,36.3z"/>
	</g>
	<g>
		
			<linearGradient id="SVGID_16_" gradientUnits="userSpaceOnUse" x1="14.5" y1="44.3333" x2="14.5" y2="0.1607" gradientTransform="matrix(1 0 0 -1 0 45)">
			<stop  offset="0" style="stop-color:#3A9DF8"/>
			<stop  offset="1" style="stop-color:#115FA7"/>
		</linearGradient>
		<path class="st15" d="M17.2,34.3c-0.2-0.3-0.6-0.6-0.9-0.7c-0.3-0.1-0.8-0.3-1.4-0.5L14.7,33v-2.1c0.2,0,0.5,0.1,0.7,0.3
			c0.1,0.2,0.2,0.5,0.3,0.7h1.8c-0.1-0.7-0.3-1.1-0.8-1.6s-1.1-0.7-1.9-0.7v-1h-0.5v1c-0.4,0-0.8,0.1-1.1,0.1
			c-0.1,0-0.2,0.1-0.3,0.1c-0.4,0.2-0.8,0.5-1,0.8s-0.3,0.7-0.3,1.2c0,0.6,0.1,0.9,0.3,1.2s0.6,0.6,0.9,0.7c0.1,0.1,0.3,0.1,0.4,0.2
			c0.2,0.1,0.6,0.2,0.9,0.3l0.2,0.1v2.3c-0.3-0.1-0.6-0.2-0.8-0.5c-0.2-0.2-0.3-0.4-0.3-0.8h-1.7c0.1,0.7,0.3,1.2,0.8,1.7
			c0.2,0.2,0.6,0.3,0.9,0.6c0.3,0.1,0.7,0.2,1.1,0.2v0.9h0.3v-0.9c0.7,0,1.1-0.1,1.6-0.3c0.5-0.2,0.8-0.5,1-0.9
			c0.2-0.3,0.3-0.7,0.3-1.1C17.5,35,17.4,34.5,17.2,34.3z M14.4,32.8h-0.1c-0.3-0.1-0.6-0.3-0.8-0.5s-0.2-0.4-0.2-0.7
			c0-0.3,0.1-0.6,0.3-0.7s0.5-0.2,0.8-0.2V32.8z M15.5,36.3c-0.2,0.2-0.4,0.3-0.8,0.3v-2.1c0.3,0.1,0.7,0.2,0.8,0.5
			c0.2,0.2,0.3,0.5,0.3,0.7C15.9,35.9,15.7,36.1,15.5,36.3z"/>
	</g>
	<g>
		
			<linearGradient id="SVGID_17_" gradientUnits="userSpaceOnUse" x1="14.5" y1="44.3333" x2="14.5" y2="0.1607" gradientTransform="matrix(1 0 0 -1 0 45)">
			<stop  offset="0" style="stop-color:#3A9DF8"/>
			<stop  offset="1" style="stop-color:#115FA7"/>
		</linearGradient>
		<path class="st16" d="M17.2,34.3c-0.2-0.3-0.6-0.6-0.9-0.7c-0.3-0.1-0.8-0.3-1.4-0.5L14.7,33v-2.1c0.2,0,0.5,0.1,0.7,0.3
			c0.1,0.2,0.2,0.5,0.3,0.7h1.8c-0.1-0.7-0.3-1.1-0.8-1.6s-1.1-0.7-1.9-0.7v-1h-0.5v1c-0.4,0-0.8,0.1-1.1,0.1
			c-0.1,0-0.2,0.1-0.3,0.1c-0.4,0.2-0.8,0.5-1,0.8s-0.3,0.7-0.3,1.2c0,0.6,0.1,0.9,0.3,1.2s0.6,0.6,0.9,0.7c0.1,0.1,0.3,0.1,0.4,0.2
			c0.2,0.1,0.6,0.2,0.9,0.3l0.2,0.1v2.3c-0.3-0.1-0.6-0.2-0.8-0.5c-0.2-0.2-0.3-0.4-0.3-0.8h-1.7c0.1,0.7,0.3,1.2,0.8,1.7
			c0.2,0.2,0.6,0.3,0.9,0.6c0.3,0.1,0.7,0.2,1.1,0.2v0.9h0.3v-0.9c0.7,0,1.1-0.1,1.6-0.3c0.5-0.2,0.8-0.5,1-0.9
			c0.2-0.3,0.3-0.7,0.3-1.1C17.5,35,17.4,34.5,17.2,34.3z M14.4,32.8h-0.1c-0.3-0.1-0.6-0.3-0.8-0.5s-0.2-0.4-0.2-0.7
			c0-0.3,0.1-0.6,0.3-0.7s0.5-0.2,0.8-0.2V32.8z M15.5,36.3c-0.2,0.2-0.4,0.3-0.8,0.3v-2.1c0.3,0.1,0.7,0.2,0.8,0.5
			c0.2,0.2,0.3,0.5,0.3,0.7C15.9,35.9,15.7,36.1,15.5,36.3z"/>
	</g>
	<g>
		
			<linearGradient id="SVGID_18_" gradientUnits="userSpaceOnUse" x1="14.5" y1="44.3333" x2="14.5" y2="0.1607" gradientTransform="matrix(1 0 0 -1 0 45)">
			<stop  offset="0" style="stop-color:#3A9DF8"/>
			<stop  offset="1" style="stop-color:#115FA7"/>
		</linearGradient>
		<path class="st17" d="M17.2,34.3c-0.2-0.3-0.6-0.6-0.9-0.7c-0.3-0.1-0.8-0.3-1.4-0.5L14.7,33v-2.1c0.2,0,0.5,0.1,0.7,0.3
			c0.1,0.2,0.2,0.5,0.3,0.7h1.8c-0.1-0.7-0.3-1.1-0.8-1.6s-1.1-0.7-1.9-0.7v-1h-0.5v1c-0.4,0-0.8,0.1-1.1,0.1
			c-0.1,0-0.2,0.1-0.3,0.1c-0.4,0.2-0.8,0.5-1,0.8s-0.3,0.7-0.3,1.2c0,0.6,0.1,0.9,0.3,1.2s0.6,0.6,0.9,0.7c0.1,0.1,0.3,0.1,0.4,0.2
			c0.2,0.1,0.6,0.2,0.9,0.3l0.2,0.1v2.3c-0.3-0.1-0.6-0.2-0.8-0.5c-0.2-0.2-0.3-0.4-0.3-0.8h-1.7c0.1,0.7,0.3,1.2,0.8,1.7
			c0.2,0.2,0.6,0.3,0.9,0.6c0.3,0.1,0.7,0.2,1.1,0.2v0.9h0.3v-0.9c0.7,0,1.1-0.1,1.6-0.3c0.5-0.2,0.8-0.5,1-0.9
			c0.2-0.3,0.3-0.7,0.3-1.1C17.5,35,17.4,34.5,17.2,34.3z M14.4,32.8h-0.1c-0.3-0.1-0.6-0.3-0.8-0.5s-0.2-0.4-0.2-0.7
			c0-0.3,0.1-0.6,0.3-0.7s0.5-0.2,0.8-0.2V32.8z M15.5,36.3c-0.2,0.2-0.4,0.3-0.8,0.3v-2.1c0.3,0.1,0.7,0.2,0.8,0.5
			c0.2,0.2,0.3,0.5,0.3,0.7C15.9,35.9,15.7,36.1,15.5,36.3z"/>
	</g>
	<g>
		
			<linearGradient id="SVGID_19_" gradientUnits="userSpaceOnUse" x1="14.5" y1="44.3333" x2="14.5" y2="0.1607" gradientTransform="matrix(1 0 0 -1 0 45)">
			<stop  offset="0" style="stop-color:#3A9DF8"/>
			<stop  offset="1" style="stop-color:#115FA7"/>
		</linearGradient>
		<path class="st18" d="M17.2,34.3c-0.2-0.3-0.6-0.6-0.9-0.7c-0.3-0.1-0.8-0.3-1.4-0.5L14.7,33v-2.1c0.2,0,0.5,0.1,0.7,0.3
			c0.1,0.2,0.2,0.5,0.3,0.7h1.8c-0.1-0.7-0.3-1.1-0.8-1.6s-1.1-0.7-1.9-0.7v-1h-0.5v1c-0.4,0-0.8,0.1-1.1,0.1
			c-0.1,0-0.2,0.1-0.3,0.1c-0.4,0.2-0.8,0.5-1,0.8s-0.3,0.7-0.3,1.2c0,0.6,0.1,0.9,0.3,1.2s0.6,0.6,0.9,0.7c0.1,0.1,0.3,0.1,0.4,0.2
			c0.2,0.1,0.6,0.2,0.9,0.3l0.2,0.1v2.3c-0.3-0.1-0.6-0.2-0.8-0.5c-0.2-0.2-0.3-0.4-0.3-0.8h-1.7c0.1,0.7,0.3,1.2,0.8,1.7
			c0.2,0.2,0.6,0.3,0.9,0.6c0.3,0.1,0.7,0.2,1.1,0.2v0.9h0.3v-0.9c0.7,0,1.1-0.1,1.6-0.3c0.5-0.2,0.8-0.5,1-0.9
			c0.2-0.3,0.3-0.7,0.3-1.1C17.5,35,17.4,34.5,17.2,34.3z M14.4,32.8h-0.1c-0.3-0.1-0.6-0.3-0.8-0.5s-0.2-0.4-0.2-0.7
			c0-0.3,0.1-0.6,0.3-0.7s0.5-0.2,0.8-0.2V32.8z M15.5,36.3c-0.2,0.2-0.4,0.3-0.8,0.3v-2.1c0.3,0.1,0.7,0.2,0.8,0.5
			c0.2,0.2,0.3,0.5,0.3,0.7C15.9,35.9,15.7,36.1,15.5,36.3z"/>
	</g>
	<g>
		
			<linearGradient id="SVGID_20_" gradientUnits="userSpaceOnUse" x1="14.5" y1="44.3333" x2="14.5" y2="0.1607" gradientTransform="matrix(1 0 0 -1 0 45)">
			<stop  offset="0" style="stop-color:#3A9DF8"/>
			<stop  offset="1" style="stop-color:#115FA7"/>
		</linearGradient>
		<path class="st19" d="M17.2,34.3c-0.2-0.3-0.6-0.6-0.9-0.7c-0.3-0.1-0.8-0.3-1.4-0.5L14.7,33v-2.1c0.2,0,0.5,0.1,0.7,0.3
			c0.1,0.2,0.2,0.5,0.3,0.7h1.8c-0.1-0.7-0.3-1.1-0.8-1.6s-1.1-0.7-1.9-0.7v-1h-0.5v1c-0.4,0-0.8,0.1-1.1,0.1
			c-0.1,0-0.2,0.1-0.3,0.1c-0.4,0.2-0.8,0.5-1,0.8s-0.3,0.7-0.3,1.2c0,0.6,0.1,0.9,0.3,1.2s0.6,0.6,0.9,0.7c0.1,0.1,0.3,0.1,0.4,0.2
			c0.2,0.1,0.6,0.2,0.9,0.3l0.2,0.1v2.3c-0.3-0.1-0.6-0.2-0.8-0.5c-0.2-0.2-0.3-0.4-0.3-0.8h-1.7c0.1,0.7,0.3,1.2,0.8,1.7
			c0.2,0.2,0.6,0.3,0.9,0.6c0.3,0.1,0.7,0.2,1.1,0.2v0.9h0.3v-0.9c0.7,0,1.1-0.1,1.6-0.3c0.5-0.2,0.8-0.5,1-0.9
			c0.2-0.3,0.3-0.7,0.3-1.1C17.5,35,17.4,34.5,17.2,34.3z M14.4,32.8h-0.1c-0.3-0.1-0.6-0.3-0.8-0.5s-0.2-0.4-0.2-0.7
			c0-0.3,0.1-0.6,0.3-0.7s0.5-0.2,0.8-0.2V32.8z M15.5,36.3c-0.2,0.2-0.4,0.3-0.8,0.3v-2.1c0.3,0.1,0.7,0.2,0.8,0.5
			c0.2,0.2,0.3,0.5,0.3,0.7C15.9,35.9,15.7,36.1,15.5,36.3z"/>
	</g>
</g>
</svg>
