<?xml version="1.0" encoding="utf-8"?>
<!-- Generator: Adobe Illustrator 22.1.0, SVG Export Plug-In . SVG Version: 6.00 Build 0)  -->
<svg version="1.1" id="Layer_1" xmlns="http://www.w3.org/2000/svg" xmlns:xlink="http://www.w3.org/1999/xlink" x="0px" y="0px"
	 viewBox="0 0 45 45" style="enable-background:new 0 0 45 45;" xml:space="preserve">
<style type="text/css">
	.st0{fill:url(#SVGID_1_);}
	.st1{fill:#FFFFFF;}
</style>
<linearGradient id="SVGID_1_" gradientUnits="userSpaceOnUse" x1="-37.55" y1="27.075" x2="-37.55" y2="27.2375" gradientTransform="matrix(1 0 0 1 0 1)">
	<stop  offset="0" style="stop-color:#3A9DF8"/>
	<stop  offset="1" style="stop-color:#115FA7"/>
</linearGradient>
<path class="st0" d="M-37.5,28.2c-0.1-0.1,0,0-0.1-0.1c-0.1-0.1,0,0,0,0L-37.5,28.2C-37.5,28.2-37.4,28.2-37.5,28.2z"/>
<g>
	<path class="st1" d="M34.4,14.3C34.2,5.1,26.7,0,17.4,0C8.2,0,0.7,5.1,0.5,14.3V45h34L34.4,14.3L34.4,14.3z M6.6,8.1
		c2.7-2.8,6.3-4.2,10.8-4.2s8.2,1.5,10.8,4.2c0.3,0.3,0.3,0.9,0,1.2s-0.9,0.3-1.2,0c-2.4-2.4-5.5-3.6-9.6-3.6S10.2,7,7.9,9.3
		C7.5,9.7,7,9.7,6.6,9.3C6.3,9,6.3,8.4,6.6,8.1z M28.7,38.6H6.1c-0.4,0-0.9-0.5-0.8-1c0-0.5,0.3-0.8,0.8-0.8h22.6
		c0.5,0,0.9,0.5,0.8,1C29.5,38.3,29.1,38.6,28.7,38.6z M32.2,32.1c0,0.8-0.6,1.3-1.3,1.3H4.1c-0.8,0-1.4-0.6-1.4-1.3V18.3
		c0-0.7,0.7-1.4,1.4-1.4h26.8c0.8,0,1.3,0.6,1.3,1.4V32.1z"/>
	<path class="st1" d="M10.4,32.3c1,0,1.8-0.8,1.8-1.8V20c0-1-0.8-1.8-1.8-1.8H5.8C4.8,18.2,4,19,4,20v10.5c0,1,0.8,1.8,1.8,1.8H10.4
		z M5.8,20h4.5v10.5H5.8V20z"/>
	<path class="st1" d="M15.1,18.2c-1,0-1.8,0.8-1.8,1.8v10.5c0,1,0.8,1.8,1.8,1.8h4.5c1,0,1.8-0.8,1.8-1.8V20c0-1-0.8-1.8-1.8-1.8
		H15.1z M19.7,30.5h-4.5V20h4.5V30.5z M19.7,31.4v-0.9V31.4z"/>
	<path class="st1" d="M29,18.2h-4.5c-1,0-1.8,0.8-1.8,1.8v10.5c0,1,0.8,1.8,1.8,1.8H29c1,0,1.8-0.8,1.8-1.8V20
		C30.8,19,30,18.2,29,18.2z M29,30.5h-4.5V20H29V30.5z M29,31.4v-0.9V31.4z"/>
	<path class="st1" d="M37.6,22.5c0-0.5,0.5-0.9,0.9-0.9v-1.8c0-0.4-0.4-0.9-0.9-0.9h-3.2V26h3.2c0.5,0,0.9-0.4,0.9-0.9v-1.7
		C37.9,23.4,37.6,23.1,37.6,22.5z"/>
	<path class="st1" d="M41.4,8.1v13.5h-2.8c-0.5,0-0.9,0.3-1,0.8c0,0.4,0.3,0.9,0.8,1h0.1h3.7c0.5,0,0.9-0.3,0.9-0.9V8.1
		c-0.2,0.1-0.6,0.2-0.9,0.2C42,8.3,41.6,8.2,41.4,8.1z"/>
	<path class="st1" d="M44.5,6c0-1.2-1-2.3-2.3-2.3S40,4.7,40,6c0,0.9,0.6,1.7,1.4,2.1c0.3,0.1,0.6,0.2,0.9,0.2
		C43.5,8.3,44.5,7.3,44.5,6z"/>
	<path class="st1" d="M9.8,24.2c-0.1-0.8-0.6-1.8-1.5-1.8c-0.2,0-0.6-0.1-0.8-0.2L7.4,22c0,0.1-0.1,0.2-0.2,0.3l0.1,0.1h0.2
		c0.6,0.6,0.9,1.5,0.8,2.3C8.2,25.3,8,26,7.7,26.4c-0.2,0.3-0.6,0.7-0.9,1c-0.1,0.1-0.2,0.3-0.3,0.6c0,0,0,0,0.1,0.1s0,0.1,0,0.1
		c0.2,0.1,0.6,0.1,0.8,0c0.6-0.1,1-0.3,1.4-0.7c0.4-0.6,0.8-1.1,1-1.7C9.8,25.3,9.9,24.8,9.8,24.2z"/>
	<path class="st1" d="M19.1,24.2c-0.1-0.8-0.6-1.8-1.5-1.8c-0.2,0-0.6-0.1-0.8-0.2l0-0.2c0,0.1-0.1,0.2-0.2,0.3l0.1,0.1l0.1,0.1
		c0.6,0.7,0.9,1.5,0.8,2.3c-0.1,0.6-0.3,1.2-0.7,1.7c-0.2,0.3-0.6,0.7-0.9,1c-0.1,0.1-0.2,0.3-0.3,0.6c0,0,0,0,0.1,0.1v0.1
		c0.2,0.1,0.6,0.1,0.8,0c0.4-0.1,1-0.5,1.4-0.8c0.4-0.5,0.8-1,1-1.7C19,25.3,19.1,24.8,19.1,24.2z"/>
	<path class="st1" d="M15.9,28.2c-0.1-0.1,0,0-0.1-0.1s0,0,0,0L15.9,28.2z"/>
	<path class="st1" d="M28.5,24.2c-0.1-0.8-0.6-1.8-1.5-1.8c-0.2,0-0.6-0.1-0.8-0.2L26.1,22c0,0.1-0.1,0.2-0.2,0.3l0.1,0.1l0.1,0.1
		c0.6,0.6,0.9,1.5,0.8,2.3c-0.1,0.6-0.3,1.2-0.7,1.7c-0.2,0.3-0.6,0.7-0.9,1c-0.1,0.1-0.2,0.3-0.3,0.6c0,0,0,0,0.1,0.1s0,0.1,0,0.1
		c0.2,0.1,0.6,0.1,0.8,0c0.5-0.1,1-0.5,1.4-0.8c0.4-0.5,0.8-1,1-1.7C28.4,25.3,28.5,24.8,28.5,24.2z"/>
	<path class="st1" d="M25.2,28.2c-0.1-0.1,0,0-0.1-0.1s0,0,0,0L25.2,28.2z"/>
</g>
</svg>
