<?xml version="1.0" encoding="utf-8"?>
<!-- Generator: Adobe Illustrator 22.1.0, SVG Export Plug-In . SVG Version: 6.00 Build 0)  -->
<svg version="1.1" id="Layer_1" xmlns="http://www.w3.org/2000/svg" xmlns:xlink="http://www.w3.org/1999/xlink" x="0px" y="0px"
	 viewBox="0 0 45 45" style="enable-background:new 0 0 45 45;" xml:space="preserve">
<style type="text/css">
	.st0{fill:#FFFFFF;}
</style>
<path class="st0" d="M38.3,45H6.8C5,45,3.2,44.3,2,43c-1.3-1.3-2-3-2-4.8v-36c0-0.6,0.2-1.2,0.7-1.6C1.1,0.2,1.7,0,2.3,0h31.5
	c0.6,0,1.2,0.2,1.6,0.7c0.4,0.4,0.7,1,0.7,1.6V18h9v20.3c0,1.8-0.7,3.5-2,4.8C41.8,44.3,40,45,38.3,45z M36,22.5v15.8
	c0,0.6,0.2,1.2,0.7,1.6c0.4,0.4,1,0.7,1.6,0.7s1.2-0.2,1.6-0.7c0.4-0.4,0.7-1,0.7-1.6V22.5H36z M6.8,9v13.5h13.5V9H6.8z M6.8,24.8
	v4.5h22.5v-4.5H6.8z M6.8,31.5V36h22.5v-4.5H6.8z M11.3,13.5h4.5V18h-4.5V13.5z"/>
</svg>
