<?xml version="1.0" encoding="utf-8"?>
<!-- Generator: Adobe Illustrator 22.1.0, SVG Export Plug-In . SVG Version: 6.00 Build 0)  -->
<svg version="1.1" id="Layer_1" xmlns="http://www.w3.org/2000/svg" xmlns:xlink="http://www.w3.org/1999/xlink" x="0px" y="0px"
	 viewBox="0 0 45 45" style="enable-background:new 0 0 45 45;" xml:space="preserve">
<style type="text/css">
	.st0{fill:url(#SVGID_1_);}
	.st1{fill:url(#SVGID_2_);}
</style>
<g>
	
		<linearGradient id="SVGID_1_" gradientUnits="userSpaceOnUse" x1="22.5" y1="45.826" x2="22.5" y2="1.2774" gradientTransform="matrix(1 0 0 -1 0 46)">
		<stop  offset="0" style="stop-color:#3A9DF8"/>
		<stop  offset="1" style="stop-color:#115FA7"/>
	</linearGradient>
	<path class="st0" d="M17.5,28.9c0.6-1.7,2.1-2.9,4.4-3.3l3.8-0.6l1.8-3.6c1-2.1,2.6-3.4,4.4-3.4s3.4,1.2,4.4,3.3l1.8,3.6l1.7,0.2
		l3-3.2c3.7-3.8,2.5-7.4-2.6-8.2l-9.4-1.4l-4.3-8.7c-2.4-4.8-6.1-4.7-8.3,0.1l-4.2,8.8l-9.4,1.5c-5.2,0.8-6.3,4.5-2.5,8.2l6.9,6.8
		c0,0-0.7,4.3-1.6,9.6s2.3,7.6,6.8,5l7.3-4.1l0.5-2.7l-2.9-2.8C17.6,32.5,16.9,30.6,17.5,28.9z"/>
	
		<linearGradient id="SVGID_2_" gradientUnits="userSpaceOnUse" x1="31.9259" y1="25.5973" x2="31.9259" y2="1.174" gradientTransform="matrix(1 0 0 -1 0 46)">
		<stop  offset="0" style="stop-color:#3A9DF8"/>
		<stop  offset="1" style="stop-color:#115FA7"/>
	</linearGradient>
	<path class="st1" d="M41.7,27.8l-5.2-0.7l-2.4-4.7c-1.2-2.6-3.4-2.6-4.6,0l-2.3,4.8L22.1,28c-2.8,0.5-3.5,2.5-1.4,4.5l3.7,3.7
		l-0.8,5.3c-0.5,2.9,1.2,4.2,3.7,2.7l4.6-2.5l4.6,2.5c2.5,1.4,4.2,0.1,3.7-2.8L39.5,36l3.7-3.7C45.2,30.2,44.5,28.2,41.7,27.8z"/>
</g>
</svg>
