<?xml version="1.0" encoding="utf-8"?>
<!-- Generator: Adobe Illustrator 22.1.0, SVG Export Plug-In . SVG Version: 6.00 Build 0)  -->
<svg version="1.1" id="Layer_1" xmlns="http://www.w3.org/2000/svg" xmlns:xlink="http://www.w3.org/1999/xlink" x="0px" y="0px"
	 viewBox="0 0 45 45" style="enable-background:new 0 0 45 45;" xml:space="preserve">
<style type="text/css">
	.st0{fill:url(#SVGID_1_);}
</style>
<linearGradient id="SVGID_1_" gradientUnits="userSpaceOnUse" x1="22.5" y1="45" x2="22.5" y2="0" gradientTransform="matrix(1 0 0 -1 0 45)">
	<stop  offset="0" style="stop-color:#3A9DF8"/>
	<stop  offset="1" style="stop-color:#115FA7"/>
</linearGradient>
<path class="st0" d="M20.5,0l21.4,3.1L45,24.5L25.1,44.4c-0.4,0.4-1,0.6-1.5,0.6c-0.6,0-1.1-0.2-1.5-0.6L0.6,22.9
	C0.2,22.5,0,22,0,21.4s0.2-1.1,0.6-1.5L20.5,0z M26.6,18.4c0.4,0.4,0.9,0.7,1.4,0.9c0.5,0.2,1.1,0.3,1.7,0.3c0.6,0,1.1-0.1,1.7-0.3
	c0.5-0.2,1-0.5,1.4-0.9c0.4-0.4,0.7-0.9,0.9-1.4c0.2-0.5,0.3-1.1,0.3-1.7c0-0.6-0.1-1.1-0.3-1.7c-0.2-0.5-0.5-1-0.9-1.4
	c-0.4-0.4-0.9-0.7-1.4-0.9S30.3,11,29.7,11c-1.1,0-2.2,0.5-3.1,1.3c-0.8,0.8-1.3,1.9-1.3,3.1C25.4,16.4,25.8,17.5,26.6,18.4z"/>
</svg>
