<?xml version="1.0" encoding="utf-8"?>
<!-- Generator: Adobe Illustrator 22.1.0, SVG Export Plug-In . SVG Version: 6.00 Build 0)  -->
<svg version="1.1" id="Layer_1" xmlns="http://www.w3.org/2000/svg" xmlns:xlink="http://www.w3.org/1999/xlink" x="0px" y="0px"
	 viewBox="0 0 45 45" style="enable-background:new 0 0 45 45;" xml:space="preserve">
<style type="text/css">
	.st0{fill:#FFFFFF;}
</style>
<path class="st0" d="M38.1,6.6h-3.7c-1.1-1.2-2.4-2.2-4.1-2.6V2H14.5v2c-1.5,0.4-3,1.4-4,2.6H6.8c-3.5,0-6.4,2.4-6.4,5.4v7.5
	c0,3,2.9,5.4,6.4,5.4h4.5c1,2.1,2.9,3.6,5.1,4.3c0,0,8.6,6.5-2.3,8.7c-0.8,0-1.4,1.1-1.4,2.5c0,1.4,0.7,2.5,1.4,2.5h16.9
	c0.8,0,1.4-1.1,1.4-2.5c0-1.4-0.7-2.5-1.4-2.5c-11-2.2-2.3-8.7-2.3-8.7c2.2-0.7,4.1-2.2,5.1-4.3h4.5c3.5,0,6.4-2.4,6.4-5.4V12
	C44.5,9.1,41.6,6.6,38.1,6.6z M6.8,22.1c-1.9,0-3.4-1.1-3.4-2.4v-7.5c0-1.3,1.5-2.4,3.4-2.4H9c-0.2,0.8-0.3,1.5-0.3,2.3l1.8,9.4
	c0,0.2,0,0.4,0,0.7H6.8z M26,17.8l0.4,4.4l-4-1.8l-4.1,1.8l0.4-4.4l-3-3.3l4.3-0.9l2.2-3.9l2.2,3.9l4.3,0.9L26,17.8z M41.5,19.5
	c0,1.3-1.5,2.4-3.4,2.4h-3.6c0-0.2,0-0.4,0-0.7l1.9-9.6c0-0.8-0.1-1.5-0.3-2.3h2.2c1.9,0,3.4,1.1,3.4,2.4v7.7H41.5z"/>
</svg>
