<svg width="40" height="40" viewBox="0 0 40 40" fill="none" xmlns="http://www.w3.org/2000/svg">
<path d="M3.34 36.6667L5.59333 28.3867C4.10857 25.8415 3.3285 22.9467 3.33334 20C3.33334 10.795 10.795 3.33337 20 3.33337C29.205 3.33337 36.6667 10.795 36.6667 20C36.6667 29.205 29.205 36.6667 20 36.6667C17.0546 36.6715 14.1611 35.892 11.6167 34.4084L3.34 36.6667ZM13.985 12.18C13.7698 12.1934 13.5595 12.2501 13.3667 12.3467C13.1859 12.4491 13.0208 12.5771 12.8767 12.7267C12.6767 12.915 12.5633 13.0784 12.4417 13.2367C11.8257 14.0384 11.4944 15.0224 11.5 16.0334C11.5033 16.85 11.7167 17.645 12.05 18.3884C12.7317 19.8917 13.8533 21.4834 15.335 22.9584C15.6917 23.3134 16.04 23.67 16.415 24.0017C18.254 25.6208 20.4454 26.7884 22.815 27.4117L23.7633 27.5567C24.0717 27.5734 24.38 27.55 24.69 27.535C25.1754 27.51 25.6494 27.3785 26.0783 27.15C26.355 27.0034 26.485 26.93 26.7167 26.7834C26.7167 26.7834 26.7883 26.7367 26.925 26.6334C27.15 26.4667 27.2883 26.3484 27.475 26.1534C27.6133 26.01 27.7333 25.8417 27.825 25.65C27.955 25.3784 28.085 24.86 28.1383 24.4284C28.1783 24.0984 28.1667 23.9184 28.1617 23.8067C28.155 23.6284 28.0067 23.4434 27.845 23.365L26.875 22.93C26.875 22.93 25.425 22.2984 24.54 21.895C24.4467 21.8544 24.3467 21.8312 24.245 21.8267C24.131 21.815 24.0157 21.8278 23.9071 21.8643C23.7984 21.9008 23.6988 21.9602 23.615 22.0384V22.035C23.6067 22.035 23.495 22.13 22.29 23.59C22.2208 23.683 22.1256 23.7532 22.0163 23.7918C21.9071 23.8304 21.7889 23.8356 21.6767 23.8067C21.5681 23.7777 21.4617 23.7409 21.3583 23.6967C21.1517 23.61 21.08 23.5767 20.9383 23.515L20.93 23.5117C19.9765 23.0954 19.0937 22.5331 18.3133 21.845C18.1033 21.6617 17.9083 21.4617 17.7083 21.2684C17.0526 20.6404 16.4812 19.9301 16.0083 19.155L15.91 18.9967C15.8394 18.8903 15.7823 18.7755 15.74 18.655C15.6767 18.41 15.8417 18.2134 15.8417 18.2134C15.8417 18.2134 16.2467 17.77 16.435 17.53C16.5918 17.3306 16.7381 17.1231 16.8733 16.9084C17.07 16.5917 17.1317 16.2667 17.0283 16.015C16.5617 14.875 16.0783 13.74 15.5817 12.6134C15.4833 12.39 15.1917 12.23 14.9267 12.1984C14.8367 12.1884 14.7467 12.1784 14.6567 12.1717C14.4328 12.1606 14.2086 12.1628 13.985 12.1784V12.18Z" fill="white"/>
</svg>
