<svg width="34" height="34" viewBox="0 0 34 34" fill="none" xmlns="http://www.w3.org/2000/svg">
<path d="M17 0.333374C26.39 0.333374 33.6667 7.21171 33.6667 16.5C33.6667 25.7884 26.39 32.6667 17 32.6667C15.3702 32.6709 13.7473 32.4556 12.175 32.0267C11.8797 31.9455 11.5654 31.9685 11.285 32.0917L7.97833 33.5517C7.77854 33.64 7.56013 33.6779 7.34228 33.662C7.12444 33.6461 6.91384 33.5769 6.72899 33.4605C6.54415 33.3441 6.39073 33.1841 6.28221 32.9946C6.1737 32.805 6.11341 32.5917 6.10666 32.3734L6.015 29.4067C6.00899 29.2263 5.96629 29.049 5.88949 28.8857C5.81269 28.7224 5.70342 28.5764 5.56833 28.4567C2.32499 25.5584 0.333328 21.3617 0.333328 16.5C0.333328 7.21171 7.61166 0.333374 17 0.333374ZM6.99166 21.2284C6.52166 21.9734 7.43833 22.8134 8.14 22.28L13.3983 18.29C13.5719 18.159 13.7834 18.0882 14.0008 18.0882C14.2183 18.0882 14.4298 18.159 14.6033 18.29L18.4983 21.2067C18.7746 21.414 19.0908 21.5617 19.4271 21.6406C19.7633 21.7196 20.1122 21.728 20.4519 21.6654C20.7915 21.6027 21.1145 21.4704 21.4005 21.2767C21.6864 21.083 21.9291 20.8322 22.1133 20.54L27.0083 12.7734C27.4783 12.0267 26.5617 11.1867 25.86 11.7184L20.6017 15.7117C20.4281 15.8427 20.2166 15.9136 19.9992 15.9136C19.7817 15.9136 19.5702 15.8427 19.3967 15.7117L15.5017 12.795C15.2254 12.5878 14.9092 12.44 14.5729 12.3611C14.2367 12.2822 13.8878 12.2737 13.5481 12.3364C13.2085 12.399 12.8855 12.5313 12.5995 12.725C12.3136 12.9187 12.0708 13.1695 11.8867 13.4617L6.99166 21.2284Z" fill="white"/>
</svg>
