<svg width="45" height="48" viewBox="0 0 45 48" fill="none" xmlns="http://www.w3.org/2000/svg">
<path d="M18.6667 0.666626L35.6953 5.98663C36.1703 6.13489 36.5854 6.43108 36.8801 6.83197C37.1747 7.23285 37.3336 7.71742 37.3333 8.21496V12.3333H42C42.6188 12.3333 43.2123 12.5791 43.6499 13.0167C44.0875 13.4543 44.3333 14.0478 44.3333 14.6666V19.3333H14V14.6666C14 14.0478 14.2458 13.4543 14.6834 13.0167C15.121 12.5791 15.7145 12.3333 16.3333 12.3333H32.6667V9.92996L18.6667 5.55263L4.66667 9.92996V27.206C4.66633 28.6345 4.99392 30.044 5.62418 31.326C6.25445 32.608 7.17058 33.7282 8.302 34.6003L8.743 34.9176L18.6667 41.6866L27.4913 35.6666H16.3333C15.7145 35.6666 15.121 35.4208 14.6834 34.9832C14.2458 34.5456 14 33.9521 14 33.3333V24H44.3333V33.3333C44.3333 33.9521 44.0875 34.5456 43.6499 34.9832C43.2123 35.4208 42.6188 35.6666 42 35.6666L34.4867 35.669C33.5837 36.859 32.487 37.909 31.22 38.7723L18.6667 47.3333L6.11333 38.7746C4.22922 37.49 2.68742 35.7646 1.62199 33.7484C0.556566 31.7323 -0.000236186 29.4863 7.51563e-08 27.206V8.21496C0.000281415 7.71782 0.159336 7.23377 0.453979 6.83336C0.748622 6.43295 1.16345 6.13711 1.638 5.98896L18.6667 0.666626Z" fill="url(#paint0_linear)"/>
<defs>
<linearGradient id="paint0_linear" x1="22.1667" y1="0.666626" x2="22.1667" y2="47.3333" gradientUnits="userSpaceOnUse">
<stop stop-color="#3A9DF8"/>
<stop offset="1" stop-color="#115FA7"/>
</linearGradient>
</defs>
</svg>
