<svg width="42" height="50" viewBox="0 0 42 50" fill="none" xmlns="http://www.w3.org/2000/svg">
<path d="M7.89134 11.9254C11.6101 8.94586 16.2349 7.32578 21 7.33337C25.9583 7.33337 30.5153 9.05071 34.1087 11.9254L37.499 8.53504L40.7983 11.8344L37.408 15.2247C39.876 18.3144 41.4215 22.0381 41.8666 25.9673C42.3117 29.8966 41.6383 33.8717 39.924 37.4351C38.2097 40.9986 35.5241 44.0056 32.1762 46.1101C28.8284 48.2146 24.9544 49.3311 21 49.3311C17.0456 49.3311 13.1716 48.2146 9.82379 46.1101C6.47595 44.0056 3.79034 40.9986 2.07603 37.4351C0.361716 33.8717 -0.311635 29.8966 0.133467 25.9673C0.57857 22.0381 2.12404 18.3144 4.59201 15.2247L1.20168 11.8367L4.50101 8.53737L7.89134 11.9277V11.9254ZM23.3333 26V15.4884L11.6667 30.6667H18.6667V41.1667L30.3333 26H23.3333ZM11.6667 0.333374H30.3333V5.00004H11.6667V0.333374Z" fill="url(#paint0_linear)"/>
<defs>
<linearGradient id="paint0_linear" x1="21" y1="0.333374" x2="21" y2="49.3311" gradientUnits="userSpaceOnUse">
<stop stop-color="#3A9DF8"/>
<stop offset="1" stop-color="#115FA7"/>
</linearGradient>
</defs>
</svg>
