<?xml version="1.0" encoding="utf-8"?>
<!-- Generator: Adobe Illustrator 22.1.0, SVG Export Plug-In . SVG Version: 6.00 Build 0)  -->
<svg version="1.1" id="Layer_1" xmlns="http://www.w3.org/2000/svg" xmlns:xlink="http://www.w3.org/1999/xlink" x="0px" y="0px"
	 viewBox="0 0 45 45" style="enable-background:new 0 0 45 45;" xml:space="preserve">
<style type="text/css">
	.st0{fill:url(#SVGID_1_);}
	.st1{fill:#FFFFFF;}
</style>
<linearGradient id="SVGID_1_" gradientUnits="userSpaceOnUse" x1="-37.55" y1="27.075" x2="-37.55" y2="27.2375" gradientTransform="matrix(1 0 0 1 0 1)">
	<stop  offset="0" style="stop-color:#3A9DF8"/>
	<stop  offset="1" style="stop-color:#115FA7"/>
</linearGradient>
<path class="st0" d="M-37.5,28.2c-0.1-0.1,0,0-0.1-0.1c-0.1-0.1,0,0,0,0L-37.5,28.2C-37.5,28.2-37.4,28.2-37.5,28.2z"/>
<g>
	<path class="st1" d="M44.9,20.8c-1.1,7.5-8.9,14.6-19.4,17c-2.4,0.6-4.8,0.8-7.3,0.8c-7.9,0-14.3-2.9-17.5-7.6
		c2.3,6.2,9.6,10,18.3,10c2.4,0,4.7-0.2,7.1-0.8C37.8,37.5,45.9,29,44.9,20.8z"/>
	<path class="st1" d="M19,37.1c2.4,0,4.7-0.2,7.1-0.8C37.5,33.6,45.5,25.4,45,17.2c0-0.5-0.1-1-0.2-1.5c0-0.1,0-0.1,0-0.2
		c-0.1-0.5-0.2-0.9-0.3-1.4c-2.3-6.2-9.6-10-18.3-10c-2.4,0-4.7,0.3-7.1,0.8C7.2,7.6-0.8,16,0.1,24.4c0,0.5,0.1,0.9,0.2,1.4v0.2
		c0.1,0.5,0.2,1,0.4,1.5C3.1,33.4,10.3,37.1,19,37.1z M17.2,6.5c0.1-0.2,0.3-0.3,0.6-0.3s0.3,0,0.6,0s0.3,0.1,0.5,0.3
		c0,0,0.1,0.1,0.1,0.2c0,0.1,0,0.1,0,0.2c0,0.1-0.1,0.2-0.1,0.3L19,7.5l0.2,0.2c0,0,0,0,0.1,0.1l0.2,0.3c0.1,0.1,0.2,0.3,0.3,0.5
		c0,0.1,0.1,0.1,0.1,0.2l0.1,0.2c0,0,0.1,0.1,0.2,0.3l0.1,0.2c-0.1,0.1-0.3,0.3-0.5,0.4c-0.1,0-0.2,0-0.4,0c-0.1,0-0.3,0-0.5,0
		C19,10,19,9.8,18.9,9.7c-0.1-0.1-0.1-0.2-0.2-0.3c-0.1-0.1-0.1-0.2-0.2-0.3c-0.1-0.1-0.1-0.3-0.2-0.4c-0.1-0.1-0.1-0.2-0.1-0.2V8.3
		C18,8,18,7.9,17.9,7.7V7.6c-0.2,0-0.5-0.1-0.7-0.2c-0.1-0.1-0.1-0.2-0.1-0.2V7C17,6.8,17.1,6.6,17.2,6.5z M21,10.2l0.4-0.2
		c0.3-0.2,0.8-0.3,1.1-0.6l1-0.4c0.2-0.1,0.3-0.1,0.6-0.2c0.2-0.1,0.5-0.1,0.7-0.2l0.2-0.1c0-0.1,0.1-0.2,0.1-0.3
		c0.2-0.1,0.4-0.2,0.7-0.2c0.1,0,0.2,0,0.2,0c0.3,0,0.7,0.2,0.8,0.6c0,0.1,0,0.3-0.1,0.4c-0.1,0.1-0.2,0.3-0.3,0.3
		c-0.1,0.1-0.2,0.1-0.3,0.1c-0.1,0-0.2,0-0.2,0c-0.1,0-0.2,0-0.3-0.1c-0.2,0.1-0.5,0.3-0.7,0.4c-0.4,0.2-1,0.6-1.5,0.7
		c-0.2,0.1-0.4,0.2-0.7,0.3l-0.5,0.1l-0.4,0.1c-0.1,0-0.2,0-0.3,0h-0.2c-0.3,0-0.7-0.1-0.7-0.1c-0.1,0.3-0.3,0.6-0.6,0.8h-0.1
		l-0.1,0.1l-0.2,0.1c-0.3,0.2-0.8,0.3-1.1,0.6h-0.1c-0.4,0.2-1,0.4-1.5,0.6c-0.2,0.1-0.6,0.2-0.8,0.2c-0.1,0.3-0.4,0.7-0.8,0.7
		c-0.1,0-0.2,0-0.2,0c-0.3,0-0.7-0.2-0.8-0.6c-0.1-0.5,0.2-0.8,0.8-0.9c0.1,0,0.2,0,0.2,0c0.1,0,0.2,0,0.4,0.1
		c0.2-0.1,0.5-0.3,0.7-0.4c0.5-0.2,0.8-0.5,1.2-0.7l0.2-0.1c0.3-0.2,0.8-0.3,1.1-0.4l0.4-0.1c0.1,0,0.2,0,0.3,0H20
		c0.3,0,0.7,0.1,0.7,0.1s0.1-0.1,0.2-0.2C20.7,10.4,20.9,10.3,21,10.2z M20.7,8.4c0.9-0.1,1.8-0.2,2.7-0.3c-0.3,0.1-0.7,0.3-1.1,0.4
		h-0.1c-0.3,0.2-0.7,0.3-1,0.4c0-0.1-0.1-0.2-0.2-0.3L20.7,8.4z M27.5,9.3c0.1-0.1,0.1-0.2,0.2-0.4c0-0.1,0.1-0.2,0.1-0.4
		c4.7,0.9,8.3,3.7,9.2,7.5c0.7,2.9-0.2,6-2.7,8.7c-2.6,2.7-6,4.6-9.7,5.4c-1.6,0.3-3,0.6-4.6,0.6c-1.2,0-2.6-0.1-3.8-0.3
		c-0.4,0.3-1.1,0.6-1.7,0.6c-1.4,0-2.5-0.9-2.8-2.3c-2.1-1.2-3.7-3.3-4.4-5.7c-1.2-5.4,3.3-11.1,10.2-13.5l0.2,0.3
		c0,0.1,0.1,0.1,0.1,0.2V10v0.1c0.1,0.1,0.1,0.2,0.2,0.4c-0.3,0.1-0.7,0.2-1,0.4l-0.3,0.1l-0.3-0.4c-2,0.9-3.8,2.1-5.4,3.7l8.9,2
		c0.1-0.2,0.3-0.4,0.5-0.6l0.1,0.7l0.1,0.3c0,0.1,0.1,0.2,0.1,0.2c0.1,0.1,0.2,0.2,0.3,0.2c0.1,0.1,0.2,0.1,0.5,0.1
		c0.1,0,0.1,0,0.2,0c0.1,0,0.1,0,0.2-0.1c0.1-0.1,0.2-0.2,0.3-0.3c0.1-0.1,0.1-0.2,0.1-0.3c0.1,0,0.2,0,0.5,0h0.2h0.1l13.2,0.6
		c0-0.3-0.1-0.8-0.1-1.1c-0.3-1.4-1-2.7-2.1-3.7l-9.5,3.2c0.1-0.2,0.1-0.6,0.1-0.9c0-0.2-0.2-0.6-0.4-0.7L29,9.5
		C28.4,9.5,28,9.3,27.5,9.3z M18.8,13.2c0.3-0.1,0.7-0.3,1-0.5c0,0.1,0.1,0.2,0.1,0.2l0.4,2.1L18.8,13.2z M22.1,14.8
		C22,14.7,22,14.7,22,14.6l-0.1-0.1l-0.2-0.2c-0.2-0.3-0.6-0.7-0.8-1.1c-0.1-0.2-0.3-0.4-0.4-0.8c0.1-0.1,0.3-0.3,0.4-0.4h0.3h0.1
		c0.1,0,0.3,0,0.5,0c0.1,0.2,0.3,0.4,0.4,0.7c0.2,0.4,0.5,0.8,0.6,1.2c0.1,0.2,0.2,0.4,0.2,0.6c0.2,0,0.5,0.1,0.6,0.2
		s0.1,0.2,0.2,0.3c0,0.4-0.3,0.9-0.8,0.9h-0.1h-0.2c-0.1,0-0.2,0-0.5-0.1c-0.1,0-0.2-0.1-0.2-0.1c-0.1-0.1-0.1-0.2-0.2-0.3
		c0-0.1,0-0.2,0-0.3C22,14.9,22,14.8,22.1,14.8z M3.3,18.4c0.1-0.6,0.3-1,0.6-1.5c0.2-0.6,0.6-1.1,0.9-1.7c2.3-3.6,6.3-6.6,11.2-8.4
		c0,0.1,0,0.3,0,0.4c0,0.1,0.1,0.2,0.1,0.3C13.5,8.5,11,10,8.7,11.8c-0.7,0.7-1.3,1.5-2,2.3c-0.4,0.6-0.9,1.2-1.3,1.9
		c-1.6,2.4-2.1,5.3-1.6,8.1c1.4,5.7,7.8,9.4,15.5,9.4c2,0,3.9-0.2,5.9-0.7c10.1-2.4,17.1-10,15.4-17.2c-0.7-2.8-2.5-5.2-5-6.6
		c-0.7-0.4-1.3-0.8-2-1.1c-0.9-0.4-1.9-0.8-2.9-1c-1.8-0.5-3.7-0.7-5.6-0.7c-1.8,0-3.7,0.2-5.4,0.6c0-0.1,0-0.1,0-0.2V6.4
		c0-0.1-0.1-0.2-0.2-0.3c1.9-0.5,3.8-0.7,5.7-0.7c3.8-0.1,7.6,0.9,10.9,2.9c0.6,0.3,1,0.7,1.6,1.1c0.5,0.3,0.8,0.7,1.2,1.1
		c1.4,1.4,2.3,3.2,2.7,5.1c0.9,3.7-0.3,7.6-3.5,11.1c-3.4,3.6-7.8,6.1-12.6,7.1c-2,0.5-4.1,0.7-6.1,0.7c-8.4,0-15-4-16.3-10
		C2.7,22.3,2.7,20.3,3.3,18.4z"/>
	<path class="st1" d="M22.2,17.7l6,10.2c2.4-1,4.5-2.6,6.1-4.6l-11.4-6.1C22.7,17.5,22.5,17.6,22.2,17.7z"/>
	<path class="st1" d="M19.9,16.9L8.1,19.6c-0.3,1.8,0.1,3.7,1.1,5.3l11-7.4C20,17.4,19.9,17.2,19.9,16.9z"/>
	<path class="st1" d="M16.5,25.8c0.6,0.6,0.9,1.2,0.9,2.1c0,0.6-0.2,1.1-0.5,1.6c1,0.2,2,0.2,3,0.2c0.5,0,0.9,0,1.4-0.1l0.1-11.7
		c-0.2,0-0.4,0-0.7-0.1L16.5,25.8z"/>
	<path class="st1" d="M14.6,25.8c-1.1,0-2,0.9-2,2c0,0,0,0,0,0.1c0,0.2,0,0.3,0.1,0.6c0.1,0.2,0.2,0.5,0.3,0.7
		c0.3,0.6,1,0.8,1.6,0.8c0.1,0,0.2,0,0.3,0c0.5-0.1,0.8-0.3,1.1-0.6c0.8-0.8,0.8-2.1-0.1-2.9C15.6,26,15,25.8,14.6,25.8z M14.6,26.5
		v0.2c-0.6,0-1.1,0.4-1.1,1.1H13C13,27.1,13.7,26.4,14.6,26.5z"/>
</g>
</svg>
