<?xml version="1.0" encoding="utf-8"?>
<!-- Generator: Adobe Illustrator 22.1.0, SVG Export Plug-In . SVG Version: 6.00 Build 0)  -->
<svg version="1.1" id="Layer_1" xmlns="http://www.w3.org/2000/svg" xmlns:xlink="http://www.w3.org/1999/xlink" x="0px" y="0px"
	 viewBox="0 0 45 45" style="enable-background:new 0 0 45 45;" xml:space="preserve">
<style type="text/css">
	.st0{fill:url(#SVGID_1_);}
	.st1{fill:url(#SVGID_2_);}
</style>
<linearGradient id="SVGID_1_" gradientUnits="userSpaceOnUse" x1="-37.55" y1="27.075" x2="-37.55" y2="27.2375" gradientTransform="matrix(1 0 0 1 0 1)">
	<stop  offset="0" style="stop-color:#3A9DF8"/>
	<stop  offset="1" style="stop-color:#115FA7"/>
</linearGradient>
<path class="st0" d="M-37.5,28.2c-0.1-0.1,0,0-0.1-0.1c-0.1-0.1,0,0,0,0L-37.5,28.2C-37.5,28.2-37.4,28.2-37.5,28.2z"/>
<linearGradient id="SVGID_2_" gradientUnits="userSpaceOnUse" x1="22.5" y1="44.9782" x2="22.5" y2="2.177636e-02" gradientTransform="matrix(1 0 0 -1 0 45)">
	<stop  offset="0" style="stop-color:#3A9DF8"/>
	<stop  offset="1" style="stop-color:#115FA7"/>
</linearGradient>
<path class="st1" d="M39.9,10.1c-0.9,0.3-1.8,0.7-2.6,1.2c0.6-0.9,1.6-1.6,2.7-1.8C30.4,6,26.8-0.5,13.1,7.8
	c3.1-2.8,7.1-4.6,11.3-4.9c-2.5-2.3-6-3.3-9.2-2.7c1.5,0,2.8,0.3,4.1,1.1c-1.8-0.2-3.6,0-5.3,0.6c1.2,0,2.6,0.3,1,1.2
	c-3.1,1.8-5.6,4.5-7.3,7.6c0.7,0.1,1.3,0.3,1.9,0.7c-0.8,0-1.6,0-2.4,0.2c-0.6,1.2-0.9,2.4-1.2,3.7c2.5-1.1,6.6-2.6,9.4-1.9
	c-3.8,0.3-9.6,1.9-12.5,4.6c-0.8,0.7-1.1,1.5,0.2,2.1s2.8,1.1,4.3,1.2c2.8,0.2,4.3-1.2,5.8-3.3C11.9,19,10.5,19.5,9,20
	c1.9-1,4-2.3,6.1-3.6c-2.9,4.4-4.5,6.4-9.4,5.5c1,8.1,7.2,14.6,15.3,16.1c-3.1-1.5-5.3-2.9-6.4-4.4c-2.3-3.2-0.6-6.5,2.8-7.8
	c2.8-1,6.6-0.8,10.2-2.3c1.6,2.3,2.3,2.8,4.2,3.1c1.1,0.1,2.4,0.2,3.5,0c4.1-0.4-1.5-4.8-2.8-5.6c0.9-0.4,2.3-1.4,3.6-2.3
	c1.3-0.9,2.7-1.8,3.8-2.3c1.7,0.1,2.7-1.2,1.7-2.4c-0.3,1.6-2.4-0.3-4.5-0.6c1.1-0.2,2.7-1.8,4-1.8c1,0,1.1,0.4,0.3,1.1
	c-0.3,0.2-0.9,0.7-0.2,1.5c-0.1-0.7,0.9-0.9,1.3-1.7C43.5,11.2,42,9.6,39.9,10.1z M8.2,18.4c1.1-0.9,1.8-1.2,3.1-2.4
	c-2.1,0.7-4.3,1.7-6.2,2.8c1.8-2.4,6.2-3.9,8.5-3.8C12,16.4,10.2,17.5,8.2,18.4z M30.7,7.8c0.9,0,1.6,0.7,1.6,1.6
	c0,0.9-0.7,1.5-1.6,1.5s-1.6-0.7-1.6-1.6C29.1,8.4,29.9,7.8,30.7,7.8z M21.6,19.7c-3,1.1-9.4,3.6-10.8,6.9c1.7-4.5,7.6-6.4,10.3-7.5
	c-2.6-3.9-2.9-9.9,0.1-12.8c-2.9,5.6-1.1,12.6,4.2,16.2C23.8,21.9,22.5,21,21.6,19.7z M29.1,22.9l0.8-0.3c0.8,1,1.6,1.9,2.5,2.8
	C30.8,24.7,30.2,24,29.1,22.9z M34.6,25.7c-1.7-1.5-2.9-2.7-3.9-3.6c0.2-0.1,0.6-0.2,0.8-0.5C32.7,22.8,33.8,24.1,34.6,25.7z
	 M25.3,5.9c-3,7.8,1.7,15.7,9.3,9.2C28,23.8,20.2,13.3,25.3,5.9z M27.4,36.3c0.1-2.7,1.7-4.3,1.1-7.1c-1.5,0.3-2.9,0.9-4.3,1.7
	c1.2-1,2.6-1.8,4-2.3c0-0.1-0.1-0.3-0.2-0.5c-0.5-1-0.9-1-2.3-0.4C24,28.5,22.3,30,22,31.3c0.2,1.2,0.9,2.4,1.7,3.3
	c-2.9-1.8-3.5-5.6-2.7-8.3c-1.6,0.1-3,0.4-4.5,1c-2,0.9-2.8,3.3-1.9,5.3c0,0.1,0.1,0.2,0.1,0.2c1,2.1,3.6,4.1,6.8,5.1
	c0.2,0.1,1.2,0.3,1.5,0.3c-0.7,0.3-1.4,0.6-2.1,0.6c0.6,2.8,2.5,5.1,5.2,6.1c2,0.8,2.3-1.9,2.1-3.3C28.3,39.5,27.3,38.2,27.4,36.3z
	 M26.6,42.7c-1.5-0.5-2.8-1.5-3.5-2.8c0.9,1.1,2.1,1.9,3.6,2.3C26.7,42.2,26.7,42.6,26.6,42.7z"/>
</svg>
