<?xml version="1.0" encoding="utf-8"?>
<!-- Generator: Adobe Illustrator 22.1.0, SVG Export Plug-In . SVG Version: 6.00 Build 0)  -->
<svg version="1.1" id="Layer_1" xmlns="http://www.w3.org/2000/svg" xmlns:xlink="http://www.w3.org/1999/xlink" x="0px" y="0px"
	 viewBox="0 0 45 45" style="enable-background:new 0 0 45 45;" xml:space="preserve">
<style type="text/css">
	.st0{fill:url(#SVGID_1_);}
	.st1{fill:url(#SVGID_2_);}
	.st2{fill:url(#SVGID_3_);}
</style>
<linearGradient id="SVGID_1_" gradientUnits="userSpaceOnUse" x1="-37.55" y1="27.075" x2="-37.55" y2="27.2375" gradientTransform="matrix(1 0 0 1 0 1)">
	<stop  offset="0" style="stop-color:#3A9DF8"/>
	<stop  offset="1" style="stop-color:#115FA7"/>
</linearGradient>
<path class="st0" d="M-37.5,28.2c-0.1-0.1,0,0-0.1-0.1c-0.1-0.1,0,0,0,0L-37.5,28.2C-37.5,28.2-37.4,28.2-37.5,28.2z"/>
<g>
	<g>
		<linearGradient id="SVGID_2_" gradientUnits="userSpaceOnUse" x1="15.6541" y1="1.0833" x2="15.6541" y2="44.7001">
			<stop  offset="0" style="stop-color:#3A9DF8"/>
			<stop  offset="1" style="stop-color:#115FA7"/>
		</linearGradient>
		<path class="st1" d="M28.4,18.2l-10.3-5c-0.8-0.3-1.7-0.6-2.6-0.6c-0.9,0-1.7,0.1-2.5,0.6l-10.3,5c-1.5,0.8-2.5,2.4-2.5,4v11.9
			c0.1,1.6,1,3.1,2.5,4l10.6,6c0.8,0.3,1.6,0.6,2.5,0.6c0.9,0,1.7-0.2,2.5-0.6l10.6-6c1.5-0.9,2.4-2.5,2.5-4.2V22.2
			C30.8,20.5,29.9,19,28.4,18.2z M15.5,18.6c1.4,0,2.5,0.7,2.5,1.5c0,0.8-1.1,1.4-2.5,1.4c-1.3,0-2.5-0.7-2.5-1.4
			C13.1,19.3,14.2,18.6,15.5,18.6z M5.6,36.4c-0.1,0.1-0.3,0.1-0.5,0.1c-0.9-0.1-1.7-0.8-1.9-1.7c-0.6-1.2-0.3-2.7,0.5-3
			c0.1-0.1,0.3-0.1,0.4-0.1c0.9,0.2,1.7,0.9,1.9,1.7C6.7,34.6,6.4,36,5.6,36.4z M5.6,28.7c-0.1,0.1-0.3,0.1-0.5,0.1
			c-0.9-0.1-1.7-0.8-1.9-1.7c-0.6-1.2-0.3-2.7,0.5-3C3.8,24,4.1,24,4.2,24c0.9,0.1,1.7,0.9,1.9,1.7C6.7,27,6.4,28.3,5.6,28.7z
			 M12.6,40.3c-0.1,0.1-0.3,0.1-0.4,0.1c-0.9-0.1-1.7-0.8-1.9-1.7c-0.6-1.4-0.3-2.7,0.5-3c0.1-0.1,0.3-0.1,0.5-0.1
			c0.9,0.1,1.7,0.8,1.9,1.7C13.6,38.5,13.5,39.8,12.6,40.3z M12.6,32.6c-0.1,0.1-0.3,0.1-0.4,0.1c-0.9-0.1-1.7-0.8-1.9-1.7
			c-0.6-1.3-0.3-2.7,0.5-3c0.1-0.1,0.3-0.1,0.5-0.1c0.9,0.1,1.7,0.8,1.9,1.7C13.6,30.8,13.5,32.2,12.6,32.6z M20.8,38.7
			c-0.2,0.9-1,1.6-1.9,1.7c-0.1,0-0.3,0-0.5-0.1c-0.8-0.5-1-1.8-0.5-3c0.3-0.9,1-1.6,2-1.7c0.1,0,0.3,0,0.5,0.1
			C21.2,36,21.4,37.3,20.8,38.7z M20.8,30.9c-0.2,0.9-1,1.6-1.9,1.8c-0.1,0-0.3,0-0.5-0.1c-0.8-0.5-1-1.8-0.5-3c0.2-0.9,1-1.6,2-1.8
			c0.1,0,0.3,0,0.5,0.1C21.2,28.3,21.4,29.7,20.8,30.9z M27.8,34.8c-0.2,0.9-1,1.6-1.9,1.7c-0.2,0-0.3,0-0.5-0.1
			c-0.8-0.3-1-1.8-0.4-3c0.2-0.9,1-1.6,1.9-1.7c0.2,0,0.3,0,0.5,0.1C28.1,32.2,28.4,33.5,27.8,34.8z M27.8,27.1
			c-0.2,0.9-1,1.6-1.9,1.8c-0.2,0-0.3,0-0.5-0.1c-0.8-0.5-1-1.8-0.4-3c0.2-0.9,1-1.6,1.9-1.8c0.2,0,0.3,0,0.5,0.1
			C28.1,24.4,28.4,25.9,27.8,27.1z M28.9,21.3l-12.7,7v14.6c0,0.3-0.5,0.7-0.8,0.7c-0.3,0-0.6-0.3-0.7-0.7V28.2L2.2,21.1
			c-0.3-0.2-0.5-0.6-0.2-0.9C2,20,2.3,19.9,2.6,19.9c0.1,0,0.2,0,0.3,0.1l12.6,7l12.6-7c0.3-0.2,0.8-0.1,0.9,0.2
			C29.4,20.6,29.3,21,28.9,21.3z"/>
	</g>
	<g>
		<linearGradient id="SVGID_3_" gradientUnits="userSpaceOnUse" x1="28.41" y1="1.0833" x2="28.41" y2="44.7001">
			<stop  offset="0" style="stop-color:#3A9DF8"/>
			<stop  offset="1" style="stop-color:#115FA7"/>
		</linearGradient>
		<path class="st2" d="M44.7,18.8L40.9,7.9c-0.7-1.6-1.9-2.9-3.6-3.6L26.3,0.4c-0.5-0.1-0.9-0.2-1.4-0.2c-1.2,0-2.4,0.5-3.4,1.2
			l-8.4,8.4c-0.6,0.7-1,1.5-1.2,2.3l0.3-0.1c1-0.5,2-0.7,3.1-0.6h0.3c0.3-0.5,0.8-0.7,1.3-0.7c0.1,0,0.2,0,0.3,0.1
			c0.5,0.2,0.8,0.7,0.8,1.1l0.3,0.1l4.4,2.1c0.3-0.7,1-1.2,1.8-1.3c0.1,0,0.2,0,0.3,0.1c0.8,0.2,1,1.3,0.7,2.6l1.8,0.9l0.3-0.3
			L24.2,2.4c-0.1-0.3,0.1-0.8,0.5-0.9c0.3-0.1,0.8,0.1,0.9,0.4l3.8,13.7L43,19.6c0.3,0.1,0.6,0.4,0.5,0.9c-0.1,0.3-0.3,0.6-0.7,0.6
			c-0.1,0-11.1-3.1-13.5-3.8c0.9,0.6,1.6,1.2,2,2c0.5,0.1,0.8,0.3,0.9,0.8c0.1,0.3,0,0.7-0.1,1c0.1,0.5,0.2,0.9,0.2,1.4v10.9
			c1-0.1,2-0.6,2.8-1.3l8.4-8.4C44.8,22,45.1,20.4,44.7,18.8z M23.6,8.3c-0.3,0.9-1.1,1.6-2,1.7h-0.3c-0.8-0.2-1-1.4-0.6-2.5
			c0.3-0.9,1.1-1.6,2-1.7h0.3C24,6.1,24.2,7.2,23.6,8.3z M35.9,13.2c-0.2,0.2-0.5,0.3-0.8,0.2c-0.8-0.1-1.6-0.5-2.1-1
			c-1-1-1.4-2.3-0.8-2.8c0.2-0.2,0.5-0.3,0.8-0.3c0.8,0.1,1.6,0.5,2.1,1C36.1,11.4,36.5,12.6,35.9,13.2z M38.2,24.4
			c-0.5,0.2-0.9,0.3-1.4,0.3c-0.7,0.1-1.2-0.2-1.6-0.8c-0.3-0.8,0.6-1.9,1.9-2.4c0.5-0.2,0.9-0.2,1.3-0.2c0.7-0.1,1.2,0.2,1.6,0.8
			C40.3,22.8,39.4,23.8,38.2,24.4z"/>
	</g>
</g>
</svg>
