<svg width="48" height="48" viewBox="0 0 48 48" fill="none" xmlns="http://www.w3.org/2000/svg">
<path d="M24 47.3333C11.113 47.3333 0.666672 36.887 0.666672 24C0.666672 11.113 11.113 0.666626 24 0.666626C36.887 0.666626 47.3333 11.113 47.3333 24C47.3333 36.887 36.887 47.3333 24 47.3333ZM21.6667 31V35.6666H26.3333V31H21.6667ZM26.3333 27.1616C28.2086 26.5964 29.8184 25.3765 30.8697 23.724C31.921 22.0715 32.3438 20.0964 32.0611 18.1584C31.7783 16.2203 30.8089 14.4483 29.3294 13.165C27.8498 11.8817 25.9585 11.1725 24 11.1666C22.112 11.1665 20.2822 11.8203 18.8219 13.0169C17.3615 14.2136 16.3607 15.8791 15.9897 17.7303L20.5677 18.6473C20.6976 17.9973 21.0094 17.3976 21.4669 16.9179C21.9243 16.4382 22.5086 16.0982 23.1517 15.9376C23.7948 15.777 24.4702 15.8023 25.0995 16.0106C25.7288 16.2188 26.286 16.6015 26.7063 17.1141C27.1266 17.6267 27.3927 18.248 27.4736 18.9059C27.5545 19.5638 27.447 20.2312 27.1635 20.8303C26.88 21.4295 26.4321 21.9358 25.8721 22.2904C25.3121 22.645 24.6629 22.8333 24 22.8333C23.3812 22.8333 22.7877 23.0791 22.3501 23.5167C21.9125 23.9543 21.6667 24.5478 21.6667 25.1666V28.6666H26.3333V27.1616Z" fill="url(#paint0_linear)"/>
<defs>
<linearGradient id="paint0_linear" x1="24" y1="0.666626" x2="24" y2="47.3333" gradientUnits="userSpaceOnUse">
<stop stop-color="#3A9DF8"/>
<stop offset="1" stop-color="#115FA7"/>
</linearGradient>
</defs>
</svg>
