<svg width="34" height="33" viewBox="0 0 34 33" fill="none" xmlns="http://www.w3.org/2000/svg">
<path d="M28.105 14.0666C28.1046 14.2988 28.012 14.5214 27.8476 14.6854C27.6833 14.8495 27.4605 14.9416 27.2283 14.9416H24.7917V16.505H27.2283C27.3463 16.4998 27.4642 16.5186 27.5747 16.5602C27.6853 16.6018 27.7863 16.6654 27.8716 16.747C27.9569 16.8287 28.0248 16.9268 28.0712 17.0355C28.1176 17.1441 28.1415 17.261 28.1415 17.3791C28.1415 17.4972 28.1176 17.6141 28.0712 17.7228C28.0248 17.8314 27.9569 17.9295 27.8716 18.0112C27.7863 18.0929 27.6853 18.1564 27.5747 18.198C27.4642 18.2396 27.3463 18.2584 27.2283 18.2533H23.9167C23.6859 18.2515 23.4651 18.1589 23.3022 17.9954C23.1394 17.8319 23.0475 17.6107 23.0467 17.38V10.7533C23.0467 10.275 23.4383 9.87829 23.9217 9.87829H27.235C27.4671 9.87895 27.6894 9.97177 27.853 10.1363C28.0166 10.3009 28.1082 10.5237 28.1075 10.7558C28.1068 10.9879 28.014 11.2101 27.8494 11.3738C27.6849 11.5374 27.4621 11.629 27.23 11.6283H24.7933V13.1916H27.23C27.715 13.1916 28.1067 13.5866 28.1067 14.0666H28.105ZM21.275 18.2083C21.1855 18.2366 21.0922 18.2506 20.9983 18.25C20.8611 18.253 20.7252 18.2231 20.602 18.1628C20.4787 18.1025 20.3718 18.0135 20.29 17.9033L16.8967 13.2966V17.38C16.88 17.5999 16.7808 17.8055 16.6191 17.9555C16.4573 18.1055 16.2448 18.1889 16.0242 18.1889C15.8035 18.1889 15.5911 18.1055 15.4293 17.9555C15.2675 17.8055 15.1683 17.5999 15.1517 17.38V10.7533C15.1512 10.5228 15.2422 10.3016 15.4047 10.1382C15.5672 9.97478 15.7879 9.8825 16.0183 9.88162C16.2883 9.88162 16.5383 10.025 16.705 10.2333L20.125 14.8583V10.7533C20.125 10.275 20.5167 9.87829 21 9.87829C21.4783 9.87829 21.875 10.275 21.875 10.7533V17.38C21.8748 17.5636 21.8167 17.7424 21.7089 17.8911C21.6012 18.0398 21.4494 18.1508 21.275 18.2083ZM13.025 18.2533C12.7939 18.252 12.5727 18.1595 12.4095 17.9959C12.2463 17.8324 12.1542 17.611 12.1533 17.38V10.7533C12.1533 10.275 12.5467 9.87829 13.0283 9.87829C13.51 9.87829 13.9017 10.275 13.9017 10.7533V17.38C13.9003 17.6117 13.8075 17.8336 13.6432 17.9972C13.479 18.1608 13.2568 18.2529 13.025 18.2533ZM10.475 18.2533H7.16333C6.93196 18.252 6.71041 18.1596 6.54664 17.9961C6.38288 17.8327 6.29008 17.6113 6.28833 17.38V10.7533C6.30745 10.5344 6.40792 10.3306 6.5699 10.1822C6.73188 10.0337 6.94361 9.9514 7.16333 9.9514C7.38304 9.9514 7.59478 10.0337 7.75676 10.1822C7.91874 10.3306 8.01921 10.5344 8.03833 10.7533V16.5033H10.4783C10.7104 16.5033 10.933 16.5955 11.097 16.7596C11.2611 16.9237 11.3533 17.1462 11.3533 17.3783C11.3533 17.6103 11.2611 17.8329 11.097 17.997C10.933 18.1611 10.7104 18.2533 10.4783 18.2533H10.475ZM17 0.286621C7.81166 0.286621 0.333328 6.35829 0.333328 13.8166C0.333328 20.5 6.26333 26.0983 14.2717 27.1616C14.8133 27.275 15.5533 27.52 15.74 27.9816C15.9067 28.3983 15.85 29.045 15.7933 29.4816L15.565 30.8983C15.5033 31.315 15.2317 32.545 17.0217 31.7933C18.815 31.045 26.6283 26.13 30.1283 22.1066C32.5217 19.4816 33.6667 16.795 33.6667 13.8166C33.6667 6.35829 26.1867 0.286621 17 0.286621Z" fill="white"/>
</svg>
